<svg width="1132" height="590" viewBox="0 0 1132 590" fill="none" xmlns="http://www.w3.org/2000/svg">
<rect width="1132" height="590" rx="10" fill="#FAFBFB"/>
<path d="M288.744 78.008L289.752 78.632C289.896 78.704 289.968 78.8 289.968 78.896C289.968 79.064 289.848 79.136 289.368 79.184C288.984 79.448 288.984 79.448 287.88 80.288C287.616 80.48 287.352 80.672 286.992 80.912C287.184 81.032 287.4 81.152 287.616 81.272C288.984 82.016 290.448 82.52 293.328 83.264C292.8 83.888 292.608 84.152 292.248 84.896C288.768 83.84 287.04 83.024 284.976 81.464C283.704 80.504 282.888 79.568 281.928 78.008C281.016 78.584 280.08 79.112 279.096 79.568H279.144C279.432 79.592 279.576 79.664 279.576 79.808C279.576 79.952 279.456 80.072 279.12 80.288V82.352C280.752 82.088 282.48 81.752 284.424 81.32L284.448 82.808C282.312 83.456 279.288 84.08 274.512 84.8C274.32 85.064 274.152 85.208 274.032 85.208C273.912 85.208 273.744 85.04 273.696 84.872L273.096 82.976C274.44 82.928 275.832 82.784 277.344 82.592V80.336C275.472 81.104 273.456 81.728 271.2 82.208C271.032 81.56 270.936 81.296 270.576 80.576C273.792 80 276.528 79.16 279.048 78.008H276C274.104 78.008 273.24 78.032 271.224 78.104V76.376C272.568 76.424 274.584 76.472 276 76.472H281.112V76.256C281.112 75.656 281.088 75.296 281.088 74.984C280.704 75.032 280.248 75.056 279.696 75.056C279.624 74.384 279.576 74.12 279.384 73.472C279.792 73.496 280.08 73.496 280.32 73.496C280.968 73.496 281.04 73.424 281.04 72.704V71.72H278.544V72.416C278.544 74.312 278.568 75.08 278.592 75.92H276.768C276.816 75.08 276.84 73.952 276.84 72.416V71.72H274.536V73.04C274.536 74.072 274.56 74.6 274.584 75.08H272.904C272.952 74.624 272.976 73.928 272.976 73.04V71.984C272.976 71.192 272.952 70.808 272.904 70.28C273.528 70.304 274.248 70.328 275.04 70.328H276.84V69.08H273.144C272.352 69.08 271.896 69.08 271.248 69.104V67.568C271.728 67.592 272.52 67.616 273.024 67.616C272.664 67.256 272.232 66.896 271.872 66.704C273.048 65.24 273.48 64.448 273.888 63.056L275.28 63.56C275.544 63.656 275.688 63.752 275.688 63.92C275.688 64.064 275.568 64.112 275.136 64.256C275.064 64.448 274.968 64.64 274.872 64.832H276.84C276.816 63.872 276.792 63.176 276.744 62.744L278.592 62.912C278.88 62.936 279.024 63.008 279.024 63.152C279.024 63.296 278.88 63.416 278.568 63.632C278.544 63.944 278.544 64.304 278.544 64.832H280.68C281.4 64.832 281.76 64.808 282.6 64.784V66.344C282.072 66.32 281.328 66.296 280.68 66.296H278.544V67.616H281.784C282.504 67.616 282.84 67.592 283.68 67.568V69.104L281.784 69.08H278.544V70.328H280.536C281.448 70.328 281.88 70.304 282.648 70.28C282.624 70.544 282.6 71.384 282.6 71.696V72.2C282.6 72.416 282.6 72.584 282.624 73.136L282.648 73.592C282.648 74.192 282.408 74.576 281.856 74.792L282.96 74.888C283.248 74.912 283.392 74.984 283.392 75.128C283.392 75.272 283.272 75.392 282.936 75.608V76.472H288C289.92 76.472 291.096 76.448 292.776 76.376V78.104C291.792 78.056 290.112 78.032 288.744 78.008ZM288.072 78.008H283.728C284.328 78.776 284.976 79.472 285.72 80.072C286.56 79.448 287.352 78.752 288.072 78.008ZM273.12 67.616H276.84V66.296H274.08C273.768 66.752 273.456 67.208 273.12 67.616ZM291.216 72.944V73.328C291.216 75.152 290.472 75.584 287.112 75.632C287.04 74.768 286.968 74.408 286.656 73.592C287.352 73.64 287.736 73.664 288.312 73.664C289.248 73.664 289.368 73.568 289.368 72.68V66.728C289.368 64.808 289.296 63.68 289.176 63.2L291.288 63.368C291.504 63.392 291.648 63.488 291.648 63.632C291.648 63.776 291.528 63.896 291.216 64.088C291.168 64.544 291.168 64.544 291.144 66.728V70.616C291.144 71 291.192 72.2 291.216 72.944ZM284.88 64.16L286.728 64.328C287.016 64.352 287.136 64.424 287.136 64.568C287.136 64.712 287.016 64.856 286.68 65.048V69.152C286.68 71.048 286.68 71.816 286.728 72.656H284.904C284.928 71.816 284.952 70.688 284.952 69.152V67.784C284.952 66.008 284.928 64.808 284.88 64.16ZM302.4 74.96V80.024C302.952 80.768 303.504 81.2 304.392 81.632C306.192 82.496 307.728 82.736 311.376 82.736C314.832 82.736 317.184 82.664 319.632 82.52C319.32 83.24 319.248 83.528 319.152 84.416C315.336 84.488 314.136 84.512 310.992 84.512C307.872 84.512 305.52 84.056 303.696 83.096C302.832 82.616 302.208 82.088 301.608 81.32C300.984 81.992 300.504 82.424 298.776 84.008C298.656 84.416 298.584 84.536 298.416 84.536C298.32 84.536 298.2 84.488 298.08 84.344L296.952 82.856C297.672 82.424 298.392 81.968 299.088 81.464C299.616 81.056 300.096 80.648 300.6 80.216V74.624H299.544C298.704 74.624 298.104 74.624 297.288 74.672V72.824C297.84 72.848 298.848 72.872 299.544 72.872H300.24C301.944 72.848 301.944 72.848 302.448 72.824C302.424 73.256 302.424 73.256 302.4 74.96ZM315.288 80.816H307.728V81.68H305.856C305.904 81.104 305.928 80.312 305.928 79.112V76.592C305.928 75.56 305.928 75.104 305.856 74.48C306.696 74.504 307.44 74.504 308.52 74.504H314.52C315.672 74.504 316.224 74.504 317.16 74.48C317.112 74.912 317.088 75.824 317.088 76.592V78.872C317.088 80.144 317.112 80.72 317.16 81.368H315.288V80.816ZM315.288 79.088V76.232H307.728V79.088H315.288ZM310.44 70.976V68H306.888C306.336 68.936 305.76 69.704 304.968 70.592C304.344 69.896 304.128 69.704 303.6 69.368C305.256 67.448 306.192 65.72 306.936 63.2L308.64 63.776C308.928 63.872 309.024 63.968 309.024 64.088C309.024 64.232 308.904 64.328 308.52 64.4C308.232 65.096 307.992 65.72 307.752 66.248H310.44V65C310.44 63.752 310.44 63.752 310.392 62.792L312.288 62.936C312.576 62.96 312.72 63.056 312.72 63.176C312.72 63.32 312.6 63.464 312.264 63.656V66.248H315.144C316.344 66.248 317.04 66.248 318.024 66.2V68.048C317.28 68.024 315.936 68 315.144 68H312.264V70.976H315.696C317.232 70.976 317.928 70.952 319.536 70.904V72.776C318.504 72.728 316.8 72.704 315.696 72.704H306.864C305.304 72.704 304.368 72.728 303.048 72.776V70.904C304.056 70.928 305.64 70.976 306.864 70.976H310.44ZM298.008 64.76L299.256 63.608C300.768 64.952 301.488 65.72 302.52 67.184L300.984 68.384C300 66.992 299.4 66.224 298.008 64.76ZM335.568 79.088V80.816C335.568 82.976 335.592 83.96 335.64 85.04H333.768C333.792 84.104 333.816 82.76 333.816 80.816V79.112C332.064 80.744 330.816 81.608 328.848 82.64C327.336 83.408 326.352 83.792 324.264 84.464C323.928 83.648 323.784 83.408 323.4 82.832C325.704 82.16 327 81.656 328.776 80.744C330.312 79.952 331.272 79.328 332.376 78.344H328.488C326.928 78.344 325.968 78.368 324.648 78.416V76.712C325.656 76.76 327.24 76.784 328.488 76.784H333.816V75.464H330.528C328.968 75.464 328.008 75.464 326.688 75.536V73.808C327.72 73.856 329.28 73.88 330.528 73.88H333.816V72.56H329.328C327.792 72.56 326.832 72.584 325.512 72.632V70.928C326.52 70.952 328.104 71 329.328 71H331.176C330.816 70.16 330.384 69.368 329.904 68.6H328.776C326.928 68.6 326.04 68.624 324 68.696V66.896C325.152 66.944 327.192 66.992 328.56 66.992C328.008 66.056 327.552 65.48 326.664 64.472L327.96 63.488C329.208 64.64 329.664 65.192 330.48 66.512L329.76 66.992H331.944C331.944 63.608 331.944 63.248 331.92 62.84L333.744 63.008C334.032 63.032 334.176 63.128 334.176 63.248C334.176 63.392 334.056 63.536 333.696 63.728V66.992H335.904C335.904 63.608 335.904 63.248 335.88 62.84L337.704 63.008C337.992 63.032 338.136 63.128 338.136 63.248C338.136 63.392 338.016 63.536 337.656 63.728V66.992H338.952C339.696 65.504 340.008 64.64 340.32 63.416L342.216 64.136C342.384 64.208 342.48 64.28 342.48 64.376C342.48 64.52 342.384 64.568 341.976 64.688C341.832 65 341.832 65 341.232 66.2C341.112 66.416 340.992 66.68 340.8 66.992C342.768 66.992 343.944 66.968 345.6 66.896V68.696C344.328 68.648 342.264 68.6 340.8 68.6H338.616L339.144 68.816C339.312 68.888 339.408 68.984 339.408 69.056C339.408 69.2 339.312 69.248 338.88 69.368C338.712 69.68 338.712 69.68 338.04 71H340.272C341.784 71 342.48 70.976 344.088 70.928V72.632C343.056 72.584 341.376 72.56 340.272 72.56H335.568V73.88H339.072C340.608 73.88 341.304 73.88 342.912 73.808V75.536C341.88 75.488 340.176 75.464 339.072 75.464H335.568V76.784H341.184C342.72 76.784 343.416 76.76 345.024 76.712V78.416C343.992 78.392 342.288 78.344 341.184 78.344H336.864C338.16 79.448 339.336 80.168 341.088 80.96C342.624 81.632 343.704 81.968 346.056 82.544C345.552 83.192 345.384 83.48 345.024 84.272C342.408 83.576 340.608 82.808 338.52 81.512C337.416 80.816 336.648 80.216 335.568 79.088ZM333.12 71H336.168C336.552 70.232 336.912 69.44 337.152 68.6H331.872C332.352 69.368 332.784 70.16 333.12 71ZM362.28 80.168H367.104C368.616 80.168 369.312 80.168 370.92 80.096V82.184C369.888 82.16 368.208 82.112 367.104 82.112H355.296C353.76 82.112 352.8 82.136 351.48 82.184V80.096C352.488 80.144 354.072 80.168 355.296 80.168H360.144V69.296H356.736C355.176 69.296 354.216 69.32 352.896 69.368V67.28C353.904 67.328 355.488 67.352 356.736 67.352H365.688C367.2 67.352 367.896 67.352 369.504 67.28V69.368C368.472 69.32 366.792 69.296 365.688 69.296H362.28V80.168ZM388.152 74.84L388.704 74.864C388.992 74.888 389.112 74.984 389.112 75.128C389.112 75.248 389.016 75.368 388.68 75.584C388.68 76.496 388.656 77.168 388.656 78.32V81.368C388.656 83 388.68 83.888 388.728 84.872H386.52C386.568 83.84 386.592 82.832 386.592 81.368V78.344C386.592 77.264 386.592 76.736 386.568 75.872C384.672 77.072 382.704 78.008 378.408 79.64C378.144 78.68 377.976 78.392 377.448 77.744C384.384 75.464 388.344 73.04 391.176 69.296L387.12 69.464C384.192 69.584 382.536 69.656 380.208 69.752L379.992 67.592C381.528 67.664 382.272 67.664 383.496 67.664C384.6 67.664 385.8 67.64 387.096 67.592L391.8 67.448L392.184 67.064L393.84 68.432C394.008 68.576 394.056 68.672 394.056 68.768C394.056 68.96 393.936 69.056 393.504 69.176C391.536 72.128 390.36 73.184 388.152 74.84ZM384.504 63.776L385.944 62.576C387.36 63.608 388.272 64.472 389.592 65.96L387.912 67.256C386.592 65.6 385.68 64.688 384.504 63.776ZM389.832 75.752L390.864 74.24C393.12 75.056 395.688 76.52 397.68 78.104L396.36 79.784C393.936 77.792 392.304 76.808 389.832 75.752ZM416.112 81.968L414.528 80.984C414.72 80.312 414.792 79.712 414.792 76.52V69.608C414.792 67.832 414.792 67.136 414.72 66.008L416.928 66.176C417.216 66.2 417.36 66.272 417.36 66.44C417.36 66.56 417.24 66.68 416.904 66.896C416.88 67.64 416.88 68.264 416.88 69.608V79.328C419.736 77.888 422.016 76.136 424.416 73.328C424.608 74.12 424.848 74.768 425.184 75.536C421.68 78.92 420.096 79.976 416.832 81.656C416.736 81.968 416.616 82.112 416.448 82.112C416.376 82.112 416.256 82.064 416.112 81.968ZM409.08 66.032L411.432 66.248C411.6 66.272 411.72 66.368 411.72 66.464C411.72 66.632 411.576 66.776 411.264 66.944C411.264 74.504 410.904 75.92 409.536 78.296C408.576 79.976 406.968 81.488 404.592 82.832C404.136 82.04 403.896 81.728 403.2 81.152C405.48 79.976 406.704 78.8 407.784 77.072C408.696 75.608 409.152 73.352 409.152 67.976C409.152 67.328 409.128 66.968 409.08 66.032ZM441.288 74.408L445.776 73.808C447.264 73.616 448.008 73.52 449.088 73.328L449.328 75.392C448.44 75.464 447.504 75.536 445.992 75.728L441.552 76.304L441.936 79.16C442.248 81.464 442.44 82.664 442.68 84.008L440.448 84.248C440.328 82.88 440.184 81.776 439.872 79.376L439.512 76.592L435.048 77.168C433.488 77.36 432.648 77.48 431.736 77.648L431.472 75.584C432.432 75.512 433.344 75.44 434.832 75.248L439.248 74.696L438.624 70.04L435.24 70.496C434.184 70.64 433.2 70.784 431.928 71.024L431.64 68.984C432.936 68.888 433.848 68.744 435.048 68.6L438.336 68.192L438.24 67.52C437.904 65.168 437.76 64.232 437.544 63.224L439.776 63.152H439.872C440.112 63.152 440.256 63.224 440.256 63.368C440.256 63.488 440.136 63.632 439.872 63.848C439.896 64.328 439.968 64.832 440.28 67.184L440.376 67.928L443.04 67.592C444.576 67.4 445.128 67.304 446.352 67.064L446.592 69.08C445.344 69.2 444.768 69.272 443.256 69.464L440.664 69.776L441.288 74.408ZM445.656 65.048L446.64 64.064C447.864 64.976 448.632 65.6 449.856 66.944L448.728 67.976C447.6 66.608 446.928 65.984 445.656 65.048ZM447.6 63.152L448.584 62.216C449.808 63.128 450.576 63.728 451.8 65.048L450.696 66.104C449.616 64.76 448.896 64.136 447.6 63.152ZM476.568 72.824V74.936C475.536 74.912 473.856 74.864 472.752 74.864H460.896C459.36 74.864 458.4 74.888 457.08 74.936V72.824C458.088 72.872 459.672 72.896 460.896 72.896H472.752C474.264 72.896 474.96 72.896 476.568 72.824ZM486.648 69.776V72.752C487.848 73.544 488.496 74.096 489.624 75.224L488.4 76.808C487.896 76.112 487.224 75.344 486.648 74.792V78.056C486.648 81.632 486.672 83.264 486.744 85.064H484.728C484.824 83.504 484.848 81.152 484.848 78.056V74.888C484.176 77.24 483.672 78.368 482.472 80.504C482.16 79.688 481.824 79.064 481.416 78.584C482.88 76.064 483.864 73.304 484.536 69.776H483.984C483.192 69.776 482.736 69.776 482.064 69.8V68C482.616 68.024 483.48 68.024 483.984 68.024H484.848C484.824 65.192 484.776 63.512 484.704 62.864L486.744 63.056C486.984 63.056 487.104 63.152 487.104 63.296C487.104 63.416 487.008 63.536 486.672 63.752C486.648 64.472 486.648 64.568 486.648 68.024H487.344C488.064 68.024 488.424 68.024 489.264 68V69.8C488.76 69.776 487.992 69.776 487.344 69.776H486.648ZM490.512 79.352V75.896C490.512 74.864 490.488 74.408 490.44 73.784C490.968 73.808 491.472 73.832 492.168 73.832H495.216V72.32H491.064C489.912 72.32 489.384 72.344 488.184 72.392V70.736C488.904 70.76 490.152 70.784 491.064 70.784H492.792V69.416C491.808 69.416 491.28 69.416 490.176 69.464V67.88C490.824 67.904 491.904 67.928 492.792 67.928V66.68H491.64C490.488 66.68 489.96 66.704 488.76 66.752V65.096C489.48 65.12 490.704 65.144 491.64 65.144H492.792C492.792 63.584 492.768 63.224 492.744 62.816L494.592 62.984C494.904 63.008 495.048 63.104 495.048 63.248C495.048 63.368 494.904 63.512 494.568 63.704V65.144H497.688C497.688 63.584 497.664 63.224 497.64 62.816L499.488 62.984C499.8 63.008 499.944 63.104 499.944 63.248C499.944 63.368 499.8 63.512 499.464 63.704V65.144H500.88C502.08 65.144 502.776 65.144 503.76 65.096V66.752C503.016 66.704 501.672 66.68 500.88 66.68H499.464V67.928H499.512C500.688 67.928 501.408 67.928 502.368 67.88V69.464C501.648 69.44 500.304 69.416 499.512 69.416H499.464V70.784H501.504C502.704 70.784 503.4 70.784 504.384 70.736V72.392C503.64 72.344 502.296 72.32 501.504 72.32H496.992V73.832H500.448C501.216 73.832 501.576 73.808 502.176 73.784C502.152 74.216 502.104 75.032 502.104 75.728V79.352C502.968 79.352 503.568 79.352 504.384 79.304V80.912C503.808 80.888 502.872 80.864 502.128 80.864C502.128 81.32 502.152 81.824 502.176 82.568C502.2 82.664 502.2 82.76 502.2 82.88C502.2 84.56 501.408 84.992 498.168 85.04C498 84.056 497.928 83.768 497.664 83.024C498.384 83.096 498.768 83.12 499.344 83.12C500.208 83.12 500.352 82.976 500.352 82.112V80.864H492.288V85.064H490.44C490.488 84.488 490.512 83.696 490.512 82.496V80.864C489.696 80.864 489.168 80.864 488.184 80.912V79.304C488.76 79.328 489.696 79.352 490.512 79.352ZM492.288 79.352H495.216V78.056H492.288V79.352ZM500.352 79.352V78.056H496.992V79.352H500.352ZM500.352 76.592V75.368H496.992V76.592H500.352ZM497.688 70.784V69.416H494.568V70.784H497.688ZM495.216 75.368H492.288V76.592H495.216V75.368ZM497.688 66.68H494.568V67.928H497.688V66.68ZM517.896 73.808L517.752 73.856C517.704 78.608 517.344 80.696 516.48 81.44C515.856 81.968 515.472 82.064 513.336 82.088C513.216 81.248 513.12 80.912 512.784 80.096C513.48 80.144 513.984 80.144 514.44 80.144C515.304 80.144 515.496 79.88 515.736 78.44C515.856 77.672 515.952 75.848 515.976 74H512.136C512.016 76.856 511.536 79.424 510.768 81.416C510.384 82.472 510.024 83.12 509.256 84.344C508.704 83.6 508.488 83.336 507.912 82.88C509.688 80.12 510.336 77.168 510.36 72.104V68.912C510.36 67.88 510.336 67.424 510.288 66.8C511.056 66.824 511.872 66.824 512.928 66.824H520.248C520.248 65.768 520.248 65.648 520.224 64.136C520.224 63.512 520.176 63.176 520.104 62.816L522.192 63.104C522.48 63.128 522.6 63.224 522.6 63.368C522.6 63.536 522.456 63.656 522.12 63.848C522.096 64.544 522.072 65.12 522.072 66.824H525.456C527.304 66.824 528.528 66.8 530.232 66.728V68.672C529.032 68.6 526.848 68.576 525.456 68.576H522.096C522.192 70.952 522.48 73.4 522.912 75.008C523.056 75.608 523.272 76.184 523.488 76.784C523.632 76.52 523.8 76.28 523.968 75.992C524.952 74.36 525.456 73.136 526.344 69.992L528.096 70.664C528.312 70.736 528.432 70.856 528.432 70.952C528.432 71.12 528.264 71.264 527.952 71.336C526.872 74.408 526.272 75.728 525.192 77.504C524.928 77.936 524.664 78.368 524.376 78.752C525.504 80.888 526.872 82.472 527.832 82.472C527.976 82.472 528.168 82.376 528.24 82.256C528.744 81.56 528.888 81.152 529.32 79.256C529.944 79.616 530.232 79.76 530.904 80.048C530.088 83.408 529.368 84.512 528.024 84.512C526.728 84.512 525.504 83.72 524.112 81.944C523.728 81.44 523.368 80.912 523.032 80.36C521.376 82.064 519.216 83.336 515.784 84.776C515.448 84.008 515.304 83.72 514.872 83.144C517.752 81.968 519.048 81.248 520.536 80.072C521.136 79.616 521.64 79.136 522.12 78.608C521.04 76.064 520.44 72.992 520.272 69.176C520.272 68.936 520.248 68.744 520.248 68.576H512.184V72.392H516.504L516.84 71.984L518.088 73.136C518.256 73.28 518.304 73.352 518.304 73.448C518.304 73.616 518.16 73.76 517.896 73.808ZM523.632 64.04L524.736 62.936C525.72 63.704 526.536 64.472 527.352 65.432L526.08 66.656C524.952 65.264 524.568 64.88 523.632 64.04ZM551.592 68.264L552.984 69.776C553.08 69.896 553.152 70.016 553.152 70.112C553.152 70.304 552.984 70.376 552.408 70.376C542.256 75.512 540.048 77.264 540.048 79.568C540.048 81.344 541.704 82.136 545.616 82.136C548.616 82.136 551.04 81.872 553.8 81.248C553.752 81.92 553.68 82.88 553.752 83.456C551.448 83.912 548.544 84.152 545.736 84.152C542.928 84.152 541.2 83.864 539.832 83.12C538.632 82.472 537.84 81.104 537.84 79.64C537.84 77.528 539.304 75.656 542.712 73.52C542.064 71.96 541.752 70.304 541.416 66.44C541.296 65.192 541.224 64.592 541.008 63.872L543.384 63.944C543.6 63.944 543.768 64.088 543.768 64.232C543.768 64.4 543.672 64.52 543.48 64.688C543.624 69.032 543.888 70.832 544.44 72.488C545.664 71.792 546.768 71.144 547.92 70.496C549.528 69.56 550.104 69.2 551.592 68.264ZM575.448 80.096V78.416C574.128 80.6 572.52 82.16 569.928 83.936C569.568 83.168 569.328 82.808 568.848 82.376C570.288 81.464 571.656 80.456 572.832 79.208C573.576 78.416 574.224 77.552 574.8 76.616H572.328C571.536 76.616 570.168 76.64 569.448 76.664V74.936C570.168 74.96 571.392 74.984 572.328 74.984H575.448V73.088H572.592V74H570.72C570.768 73.064 570.792 71.648 570.792 69.896V67.832C570.792 66.392 570.744 64.76 570.72 64.016C571.368 64.04 571.92 64.04 572.76 64.04H580.032C580.872 64.04 581.4 64.04 582.072 64.016C582.024 64.784 582.024 64.784 582 67.832V69.608C582 71.504 582.024 72.92 582.072 73.832H580.2V73.088H577.224V74.984H580.68C581.616 74.984 582.84 74.96 583.56 74.936V76.664C582.816 76.64 581.472 76.616 580.68 76.616H577.872C578.64 77.84 579.096 78.392 579.96 79.304C581.136 80.48 581.904 81.08 583.776 82.232C583.056 82.976 582.912 83.144 582.504 83.84C580.056 82.064 578.448 80.384 577.224 78.224V80.096C577.224 82.304 577.248 83.936 577.32 85.016H575.352C575.424 83.936 575.448 82.304 575.448 80.096ZM575.448 67.808V65.696H572.592V67.808H575.448ZM577.224 67.808H580.2V65.696H577.224V67.808ZM575.448 69.32H572.592V71.432H575.448V69.32ZM577.224 69.32V71.432H580.2V69.32H577.224ZM566.808 83.168H563.928V84.704H561.96C562.008 84.128 562.032 83.336 562.032 82.136V78.944C562.032 78.176 562.008 77.264 561.96 76.832C562.512 76.856 563.016 76.856 563.712 76.856H567.048C567.744 76.856 568.248 76.856 568.776 76.832C568.728 77.264 568.704 78.176 568.704 78.944V81.656C568.704 82.784 568.728 83.576 568.776 84.152H566.808V83.168ZM566.808 81.536V78.488H563.928V81.536H566.808ZM569.448 67.04V68.864C568.944 68.84 568.176 68.816 567.528 68.816H563.16C562.512 68.816 561.744 68.84 561.24 68.864V67.04C561.768 67.064 562.632 67.088 563.16 67.088H567.528C568.056 67.088 568.92 67.064 569.448 67.04ZM568.416 73.472V75.248C568.056 75.224 567.408 75.2 566.976 75.2H563.712C563.28 75.2 562.608 75.224 562.272 75.248V73.472C562.632 73.496 563.256 73.496 563.712 73.496H566.976C567.432 73.496 568.056 73.496 568.416 73.472ZM568.416 70.184V71.984C568.056 71.96 567.432 71.936 566.976 71.936H563.712C563.256 71.936 562.632 71.96 562.272 71.984V70.184C562.68 70.208 563.256 70.232 563.712 70.232H566.976C567.432 70.232 568.008 70.208 568.416 70.184ZM568.416 63.752V65.552C568.008 65.528 567.432 65.528 566.976 65.528H563.712C563.256 65.528 562.68 65.528 562.272 65.552V63.752C562.632 63.776 563.256 63.8 563.712 63.8H566.976C567.432 63.8 568.056 63.776 568.416 63.752ZM594.432 77.12H596.28C597.024 77.12 597.36 77.12 598.2 77.096V78.824C597.72 78.8 596.952 78.776 596.28 78.776H594.432V81.776C596.208 82.544 598.248 82.808 601.656 82.808C604.824 82.808 607.944 82.712 610.032 82.568C609.696 83.312 609.624 83.6 609.552 84.464C605.832 84.536 604.512 84.536 601.056 84.536C597.72 84.536 594.912 83.96 592.872 82.832C591.864 82.256 591.024 81.488 590.304 80.432C589.896 81.896 589.344 83.288 588.576 84.752C588.072 84.2 587.856 84.008 587.184 83.528C588.504 81.032 588.984 79.28 589.344 75.632L591.048 75.992C591.336 76.064 591.528 76.184 591.528 76.328C591.528 76.496 591.384 76.592 591 76.712C590.928 77.36 590.832 77.96 590.736 78.56C591.216 79.424 591.816 80.192 592.632 80.792V74.84H590.184C589.248 74.84 588.816 74.84 587.784 74.888V73.064C588.48 73.088 589.488 73.112 590.184 73.112H596.424C597.36 73.112 597.792 73.112 598.8 73.064V74.888C598.128 74.84 597.12 74.84 596.424 74.84H594.432V77.12ZM604.128 67.688H606.72C607.488 67.688 607.848 67.664 608.448 67.64C608.424 68.072 608.376 69.008 608.376 69.776V76.16C608.376 77.432 608.4 78.032 608.448 78.656H606.6V78.032H601.32V78.704H599.472C599.52 78.152 599.544 77.336 599.544 76.16V69.776C599.544 68.72 599.544 68.264 599.472 67.64C600.024 67.664 600.504 67.688 601.224 67.688H602.376C602.64 66.968 602.88 66.248 603.072 65.504H600.696C599.76 65.504 599.328 65.528 598.32 65.552V63.752C598.992 63.8 600 63.8 600.696 63.8H607.392C608.328 63.8 608.76 63.8 609.768 63.752V65.552C609.096 65.528 608.088 65.504 607.392 65.504H605.088C605.016 65.696 604.92 65.936 604.704 66.44C604.56 66.824 604.368 67.208 604.128 67.688ZM601.32 76.4H606.6V75.08H601.32V76.4ZM601.32 70.592H606.6V69.296H601.32V70.592ZM606.6 72.2H601.32V73.472H606.6V72.2ZM595.44 71.576H590.976V72.32H589.128C589.176 71.744 589.176 70.952 589.176 69.776V65.864C589.176 64.808 589.176 64.352 589.128 63.704C589.584 63.728 590.568 63.776 590.856 63.776H595.56C596.232 63.776 596.616 63.752 597.288 63.704C597.24 64.208 597.216 65.096 597.216 65.864V69.776C597.216 71.048 597.24 71.624 597.288 72.272H595.44V71.576ZM595.44 69.968V68.48H590.976V69.968H595.44ZM595.44 66.872V65.384H590.976V66.872H595.44ZM604.68 79.616L605.688 78.44C607.608 79.592 608.328 79.976 609.936 80.696C609.48 81.2 609.336 81.416 608.904 82.184C606.936 81.152 606.216 80.696 604.68 79.616ZM602.304 78.368L603.528 79.04C603.744 79.16 603.84 79.28 603.84 79.4C603.84 79.616 603.744 79.664 603.12 79.76C601.344 80.912 599.592 81.68 597.312 82.256C596.904 81.296 596.856 81.2 596.544 80.744C599.208 80.12 600.456 79.592 602.304 78.368ZM634.464 62.672H636.048C633.408 66.152 632.04 69.968 632.04 73.88C632.04 77.792 633.408 81.608 636.048 85.088H634.464C631.488 81.608 630.024 77.912 630.024 73.88C630.024 69.848 631.488 66.152 634.464 62.672ZM641.784 83V81.248C643.56 78.992 643.56 78.992 646.056 75.968C649.656 71.6 650.16 70.784 650.16 69.224C650.16 67.472 648.984 66.392 647.088 66.392C645.36 66.392 644.16 67.4 643.92 69.056H641.904C642.144 66.152 644.112 64.448 647.208 64.448C650.4 64.448 652.416 66.272 652.416 69.176C652.416 70.832 651.912 71.984 650.16 74.192C649.296 75.296 647.712 77.216 645.624 79.712C645.432 79.928 645.072 80.384 644.568 81.008H652.68V83H641.784ZM664.89 64.448C668.682 64.448 670.986 68 670.986 73.856C670.986 79.712 668.682 83.264 664.89 83.264C661.098 83.264 658.794 79.712 658.794 73.856C658.794 68 661.098 64.448 664.89 64.448ZM664.89 66.296C663.786 66.296 662.85 66.824 662.298 67.808C661.482 69.224 661.05 71.408 661.05 74.048C661.05 76.976 661.818 79.688 662.898 80.672C663.474 81.176 664.122 81.416 664.89 81.416C665.778 81.416 666.546 81.08 667.122 80.432C668.058 79.376 668.73 76.712 668.73 74.048C668.73 70.832 668.058 68.192 666.93 67.088C666.378 66.56 665.706 66.296 664.89 66.296ZM675.972 70.064H678.42L681.276 74.576L684.204 70.064H686.724L682.572 76.112L687.252 83H684.732L681.276 77.744L677.82 83H675.3L680.028 76.112L675.972 70.064ZM691.075 70.064H693.523L696.379 74.576L699.307 70.064H701.827L697.675 76.112L702.355 83H699.835L696.379 77.744L692.923 83H690.403L695.131 76.112L691.075 70.064ZM716.954 71.264V67.664H711.578C711.314 68.096 711.002 68.552 710.666 69.056C709.466 70.784 708.674 71.72 707.114 73.136C706.778 72.632 706.61 72.416 705.938 71.792C708.938 68.816 710.378 66.632 711.866 62.696L713.522 63.344C713.858 63.488 714.026 63.608 714.026 63.752C714.026 63.92 714.026 63.92 713.33 64.112C713.042 64.808 712.778 65.384 712.514 65.936H722.618C724.49 65.936 725.69 65.912 727.394 65.84V67.76C726.17 67.712 724.058 67.664 722.618 67.664H718.826V71.264H723.002C724.202 71.264 724.898 71.24 725.882 71.216V73.016C725.138 72.968 723.794 72.944 723.002 72.944H718.826V77.144H723.434C725.378 77.144 726.554 77.12 728.21 77.048V78.968C726.938 78.92 724.898 78.872 723.434 78.872H718.826V80.096C718.826 82.616 718.85 83.768 718.898 85.016H716.858C716.93 83.936 716.954 82.304 716.954 80.096V78.872H710.81C708.962 78.872 708.074 78.896 706.034 78.968V77.048C707.09 77.096 708.77 77.12 710.09 77.144V73.328C710.066 71.624 710.066 71.624 710.042 71.216C710.69 71.24 710.69 71.24 712.85 71.264H716.954ZM716.954 72.944H711.89V77.144H716.954V72.944ZM746.69 81.008L746.762 81.032C748.634 81.896 750.41 82.376 754.514 83.12C754.106 83.744 753.962 83.984 753.482 84.992C749.858 84.224 748.394 83.792 746.498 82.952C745.97 82.712 745.49 82.472 745.034 82.208C743.618 83.072 741.626 83.864 739.538 84.368C738.698 84.584 737.642 84.8 735.842 85.088C735.65 84.344 735.53 84.032 735.146 83.336C738.41 82.808 739.682 82.52 741.434 81.896C742.13 81.656 742.778 81.392 743.354 81.08C742.706 80.552 742.082 79.952 741.482 79.232C740.93 78.584 740.594 78.08 740.162 77.24C739.25 77.24 738.65 77.264 737.522 77.312V75.464C738.41 75.488 739.898 75.536 740.882 75.536H748.994L749.378 75.104L750.65 76.256C750.794 76.376 750.866 76.496 750.866 76.592C750.866 76.76 750.746 76.856 750.434 76.976L750.146 77.072C749.162 78.512 748.034 79.88 746.69 81.008ZM747.818 77.24H742.034C742.85 78.368 743.81 79.376 744.986 80.096C746.066 79.28 747.002 78.296 747.818 77.24ZM736.082 69.224H740.426C740.402 68.264 740.378 67.664 740.354 67.16L742.274 67.328C742.538 67.352 742.682 67.424 742.682 67.568C742.682 67.712 742.562 67.832 742.226 68.024V69.224H746.474C746.45 68.312 746.426 67.64 746.402 67.16L748.322 67.328C748.61 67.352 748.73 67.424 748.73 67.568C748.73 67.712 748.61 67.832 748.274 68.024V69.224H749.57C751.25 69.224 752.33 69.2 753.866 69.152V71.048C752.786 71 750.818 70.952 749.57 70.952H748.274V71.6C748.274 73.064 748.298 73.784 748.322 74.648H746.474V74.072H742.226V75.08H740.354C740.402 74.36 740.426 73.16 740.426 72.104V70.952H736.082V72.848C736.082 78.416 735.41 81.344 733.37 84.728C732.842 84.008 732.578 83.744 731.978 83.264C733.658 80.552 734.306 77.696 734.306 72.68V67.208C734.306 66.2 734.282 65.72 734.234 65.096C735.05 65.12 735.842 65.12 736.874 65.12H742.73V64.208C742.73 63.416 742.73 63.056 742.706 62.648L744.578 62.816C744.89 62.84 745.034 62.936 745.034 63.08C745.034 63.2 744.914 63.344 744.578 63.536V65.12H749.042C750.962 65.12 752.138 65.096 753.818 65.024V66.896C752.57 66.848 750.41 66.8 749.042 66.8H736.082V69.224ZM746.474 70.952H742.226V72.536H746.474V70.952ZM779.57 70.688V72.752C778.538 72.704 777.146 72.68 775.73 72.68H771.818C771.698 75.872 770.978 78.2 769.706 79.808C768.482 81.368 766.37 82.784 763.322 84.08C762.962 83.264 762.578 82.736 762.026 82.256C764.81 81.2 766.154 80.312 767.258 79.28C768.794 77.816 769.49 75.704 769.658 72.68H764.138C762.602 72.68 761.642 72.704 760.322 72.752V70.688C761.33 70.736 762.65 70.76 764.138 70.76H775.73C777.266 70.76 777.962 70.76 779.57 70.688ZM775.058 64.832V66.848C774.338 66.824 772.97 66.8 772.178 66.8H766.082C764.93 66.8 764.426 66.8 763.226 66.848V64.832C764.186 64.88 765.17 64.88 766.082 64.88H772.178C773.378 64.88 774.098 64.88 775.058 64.832ZM775.754 65.624L776.738 64.64C777.962 65.552 778.73 66.176 779.954 67.52L778.826 68.552C777.698 67.184 777.026 66.56 775.754 65.624ZM777.698 63.728L778.682 62.792C779.906 63.704 780.674 64.304 781.898 65.624L780.794 66.68C779.714 65.336 778.994 64.712 777.698 63.728ZM806.09 72.824V74.936C805.058 74.912 803.378 74.864 802.274 74.864H790.418C788.882 74.864 787.922 74.888 786.602 74.936V72.824C787.61 72.872 789.194 72.896 790.418 72.896H802.274C803.786 72.896 804.482 72.896 806.09 72.824ZM821.45 67.4H828.386L828.698 67.04L830.234 68.432C830.45 68.648 830.498 68.648 830.498 68.768C830.498 68.936 830.378 69.056 829.994 69.224C829.202 72.8 827.882 75.728 825.65 78.344C823.25 81.152 820.058 83.216 816.506 84.848C816.122 83.96 815.882 83.6 815.282 82.976C819.026 81.536 821.882 79.544 823.49 77.624C821.882 76.016 820.538 75.008 818.474 73.76L819.746 72.344C822.17 73.784 823.37 74.696 824.81 76.04C826.154 74.312 827.234 71.864 827.81 69.272H820.394C818.738 71.696 817.946 72.584 814.802 75.296C814.346 74.576 814.106 74.336 813.362 73.736C817.49 70.52 819.578 67.544 820.85 63.2L822.866 63.92C823.106 64.016 823.178 64.088 823.178 64.232C823.178 64.4 823.106 64.472 822.674 64.64C822.074 66.128 821.81 66.704 821.45 67.4ZM839.906 85.088H838.322C840.962 81.608 842.354 77.792 842.354 73.88C842.354 69.968 840.962 66.152 838.322 62.672H839.906C842.882 66.152 844.346 69.848 844.346 73.88C844.346 77.912 842.882 81.608 839.906 85.088Z" fill="black"/>
<path d="M520.224 317.32L521.016 317.824C521.184 317.92 521.232 317.992 521.232 318.088C521.232 318.28 521.112 318.328 520.656 318.376C520.272 318.664 520.272 318.664 519.168 319.504C519 319.624 518.832 319.744 518.64 319.864C520.08 320.656 521.544 321.136 524.544 321.88C523.968 322.528 523.56 323.176 523.248 323.896C520.128 322.96 518.352 322.168 516.576 320.92C515.088 319.864 514.104 318.88 513.12 317.32H512.976C512.184 317.776 511.344 318.208 510.504 318.592C510.696 318.616 510.792 318.688 510.792 318.808C510.792 318.952 510.648 319.096 510.312 319.288V320.968C511.8 320.728 513.384 320.44 515.112 320.056L515.16 322C513.096 322.624 510.096 323.224 505.512 323.896C505.296 324.184 505.152 324.304 505.008 324.304C504.888 324.304 504.72 324.136 504.672 323.968L503.976 321.664C505.296 321.616 506.664 321.496 508.104 321.304V319.576C506.256 320.248 504.312 320.776 502.176 321.208C502.008 320.416 501.84 320.008 501.456 319.192C504.312 318.712 506.736 318.112 508.968 317.32H506.976C505.656 317.32 503.496 317.368 502.2 317.416V315.376C503.448 315.424 505.608 315.472 506.976 315.472H511.872V315.256C511.872 314.752 511.848 314.344 511.848 314.032C511.536 314.056 511.152 314.056 510.648 314.056H510.528C510.456 313.264 510.456 313.264 510.24 312.16C510.696 312.184 510.912 312.184 511.104 312.184C511.824 312.184 511.896 312.112 511.896 311.392V310.936H509.712V311.416C509.712 313.024 509.736 314.248 509.784 314.92H507.552C507.6 314.08 507.6 312.952 507.6 311.416V310.936H505.704V312.04C505.704 312.928 505.728 313.672 505.776 314.08H503.736C503.76 313.624 503.784 312.928 503.784 312.04V310.984C503.784 310.456 503.76 309.616 503.736 309.28C504.36 309.304 505.056 309.328 505.848 309.328H507.6V308.296H504.144C503.496 308.296 502.728 308.296 502.224 308.32V306.496L503.904 306.52C503.496 306.064 503.04 305.656 502.68 305.44C503.832 304.144 504.36 303.256 504.792 301.936L506.472 302.56C506.736 302.656 506.88 302.752 506.88 302.92C506.88 303.064 506.76 303.136 506.328 303.256C506.28 303.376 506.232 303.496 506.16 303.616H507.6C507.6 302.752 507.576 302.2 507.528 301.744L509.784 301.912C510.048 301.936 510.192 302.008 510.192 302.152C510.192 302.296 510.048 302.44 509.736 302.632C509.736 302.896 509.712 303.208 509.712 303.616H511.656C512.184 303.616 513.048 303.592 513.576 303.568V305.416C513.072 305.392 512.304 305.368 511.656 305.368H509.712V306.52H512.76L514.68 306.496V308.32C514.176 308.296 513.408 308.296 512.76 308.296H509.712V309.328H511.68C512.472 309.328 513.192 309.304 513.792 309.28C513.768 309.544 513.744 310.384 513.744 310.696V311.2C513.744 311.32 513.792 311.872 513.792 311.992V312.328C513.792 312.928 513.576 313.384 513.144 313.648C513.048 313.696 512.976 313.744 512.88 313.792L514.176 313.888C514.464 313.912 514.632 313.984 514.632 314.128C514.632 314.272 514.488 314.416 514.152 314.608V315.472H518.976C520.488 315.472 522.552 315.424 523.776 315.376V317.416C522.816 317.392 521.472 317.344 520.224 317.32ZM518.784 317.32H515.376C515.856 317.872 516.384 318.4 516.984 318.808C517.632 318.352 518.208 317.848 518.784 317.32ZM504.36 306.52H507.6V305.368H505.2C504.936 305.776 504.648 306.136 504.36 306.52ZM522.408 311.776L522.432 312.136C522.432 314.392 521.616 314.872 517.896 314.872C517.824 313.816 517.824 313.816 517.44 312.4C518.136 312.472 518.52 312.472 519.096 312.472C520.032 312.472 520.128 312.376 520.128 311.488V305.728C520.128 304.144 520.056 302.56 519.96 302.2L522.48 302.368C522.696 302.392 522.84 302.488 522.84 302.632C522.84 302.776 522.72 302.896 522.408 303.088C522.36 303.544 522.36 303.544 522.336 305.728V309.832C522.336 310.168 522.384 311.128 522.408 311.776ZM515.664 303.04L517.92 303.208C518.184 303.232 518.328 303.304 518.328 303.448C518.328 303.592 518.208 303.736 517.896 303.928C517.872 304.48 517.872 305.128 517.872 306.64V308.032C517.872 309.616 517.896 310.84 517.92 311.536H515.664C515.712 310.696 515.736 309.544 515.736 308.032V306.64C515.736 304.744 515.712 303.736 515.664 303.04ZM533.424 313.696V318.664C534.024 319.48 534.6 319.936 535.608 320.368C537.432 321.208 538.8 321.4 542.76 321.4C545.448 321.4 548.712 321.304 550.632 321.184C550.32 322.192 550.296 322.264 550.176 323.536C546.576 323.608 544.704 323.632 541.872 323.632C538.992 323.632 536.664 323.224 534.84 322.36C533.88 321.904 533.184 321.4 532.536 320.632C531.84 321.4 531.12 322.072 530.568 322.552C530.4 322.696 530.136 322.936 529.824 323.248C529.704 323.632 529.608 323.776 529.464 323.776C529.344 323.776 529.224 323.68 529.128 323.56L527.832 321.76C529.104 320.944 530.064 320.224 531.144 319.288V313.816H530.496C529.872 313.816 528.816 313.84 528.24 313.888V311.56C528.792 311.608 529.8 311.608 530.496 311.608H531.264C532.944 311.608 532.944 311.608 533.472 311.56C533.448 311.992 533.448 311.992 533.424 313.696ZM539.208 319.96V320.68H536.88C536.928 320.104 536.952 319.312 536.952 318.112V315.376C536.952 314.632 536.928 313.696 536.88 313.264C537.72 313.288 538.464 313.312 539.52 313.312H545.52C546.6 313.312 547.344 313.288 548.184 313.264C548.136 313.696 548.112 314.632 548.112 315.376V317.968C548.112 319.096 548.136 319.912 548.184 320.464H545.856V319.96H539.208ZM539.208 317.8H545.856V315.448H539.208V317.8ZM541.224 309.808V307.216H537.96C537.432 308.056 536.856 308.752 536.088 309.568C535.416 308.776 534.984 308.368 534.432 308.008C536.112 306.184 537.072 304.504 537.816 302.128L539.88 302.872C540.192 302.968 540.264 303.04 540.264 303.16C540.264 303.328 540.12 303.4 539.76 303.496C539.52 304.072 539.304 304.6 539.088 305.056H541.224V304C541.224 302.896 541.2 302.608 541.176 301.792L543.552 301.936C543.816 301.96 543.984 302.056 543.984 302.176C543.984 302.32 543.84 302.464 543.504 302.656V305.056H546.168C547.08 305.056 548.304 305.032 549.024 304.984V307.288C548.304 307.24 546.96 307.216 546.168 307.216H543.504V309.808H546.72C547.824 309.808 549.504 309.76 550.536 309.736V312.016C549.504 311.992 547.824 311.944 546.72 311.944H537.888C536.64 311.944 535.08 311.968 534.072 312.016V309.736C535.08 309.784 536.64 309.808 537.888 309.808H541.224ZM529.08 303.928L530.616 302.512C532.104 303.808 532.872 304.648 533.904 306.064L532.056 307.552C530.928 305.944 530.688 305.632 529.08 303.928ZM566.808 318.616V319.816C566.808 321.64 566.832 323.176 566.88 324.04H564.528C564.576 323.104 564.6 321.76 564.6 319.816V318.544C563.208 319.768 562.296 320.392 560.76 321.232C558.936 322.216 557.688 322.72 555.264 323.464C554.856 322.384 554.808 322.264 554.256 321.352C557.88 320.392 560.4 319.288 562.536 317.752H559.488C558.24 317.752 556.68 317.776 555.672 317.824V315.784C556.68 315.832 558.24 315.856 559.488 315.856H564.6V314.68H561.528C560.304 314.68 558.72 314.704 557.712 314.752V312.736C558.72 312.76 560.304 312.808 561.528 312.808H564.6V311.68H560.352C559.104 311.68 557.52 311.728 556.512 311.776V309.736C557.52 309.784 559.104 309.808 560.352 309.808H561.816C561.528 309.088 561.168 308.416 560.76 307.768H559.776C558.456 307.768 556.296 307.792 555 307.84V305.656C556.08 305.704 557.832 305.728 559.176 305.728C558.696 304.936 558.336 304.48 557.424 303.472L559.056 302.2C560.4 303.472 560.736 303.856 561.624 305.296L560.952 305.728H562.728V303.376L562.704 301.84L564.96 302.008C565.248 302.032 565.416 302.104 565.416 302.248C565.416 302.392 565.272 302.536 564.936 302.728V305.728H566.688V303.376C566.688 302.728 566.688 302.2 566.664 301.84L568.944 302.008C569.208 302.032 569.376 302.104 569.376 302.248C569.376 302.392 569.232 302.536 568.896 302.728V305.728H569.856C570.6 304.24 570.84 303.544 571.152 302.272L573.48 303.112C573.624 303.16 573.744 303.28 573.744 303.376C573.744 303.544 573.672 303.592 573.192 303.76C573.048 304.048 573.048 304.048 572.472 305.224C572.4 305.368 572.304 305.536 572.184 305.728C573.648 305.728 575.472 305.704 576.6 305.656V307.84C575.328 307.792 573.288 307.768 571.824 307.768H570.264C570.576 307.864 570.648 307.984 570.648 308.08C570.648 308.224 570.528 308.296 570.12 308.416C569.952 308.728 569.952 308.728 569.4 309.808H571.272C572.376 309.808 574.056 309.784 575.088 309.736V311.776C574.056 311.728 572.376 311.68 571.272 311.68H566.808V312.808H570.072C571.176 312.808 572.88 312.76 573.912 312.736V314.752C572.88 314.704 571.176 314.68 570.072 314.68H566.808V315.856H572.208C573.312 315.856 574.992 315.832 576.024 315.784V317.824C574.992 317.776 573.312 317.752 572.208 317.752H568.656C570.864 319.312 573.336 320.272 577.152 321.112C576.6 322 576.48 322.264 576.072 323.296C573.672 322.696 572.016 322.048 570 320.968C568.728 320.248 568.008 319.744 566.808 318.616ZM564.24 309.808H567.168C567.48 309.136 567.792 308.464 568.008 307.768H563.136C563.592 308.392 563.952 309.088 564.24 309.808ZM593.376 312.808V315.712H596.184C597.144 315.712 598.704 315.688 599.544 315.64V317.992C598.656 317.968 597.096 317.92 596.184 317.92H593.376V321.232H597.696C599.208 321.232 601.248 321.184 602.472 321.136V323.536C601.2 323.488 599.16 323.44 597.696 323.44H586.824C585.504 323.44 583.344 323.488 582.048 323.536V321.136C583.272 321.184 585.456 321.232 586.824 321.232H591.072V317.92H588.24C587.232 317.92 585.888 317.968 584.88 317.992V315.64C585.816 315.688 587.184 315.712 588.24 315.712H591.072V312.808H588.72C587.928 312.808 586.584 312.832 585.864 312.856V310.984C584.736 311.824 583.512 312.592 582.072 313.432C581.616 312.568 581.424 312.28 580.776 311.416C586.152 308.416 588.624 306.064 591.336 301.36L593.568 302.176C593.88 302.296 594.048 302.44 594.048 302.608C594.048 302.8 594 302.872 593.592 302.992C594.744 304.84 595.776 306.064 597.192 307.264C598.92 308.704 600.84 309.808 603.552 310.96C602.88 311.752 602.712 312.016 602.16 313.12C600.6 312.328 599.544 311.752 598.632 311.176V312.856C597.888 312.832 596.544 312.808 595.752 312.808H593.376ZM588.72 310.6H595.752C596.376 310.6 597.12 310.6 597.768 310.576C597.24 310.192 596.712 309.784 596.112 309.28C594.288 307.72 593.64 307 592.08 304.432C590.832 306.4 589.896 307.528 588.36 308.92C587.736 309.496 587.088 310.048 586.416 310.576C587.136 310.576 588.024 310.6 588.72 310.6ZM625.632 317.92V320.08C625.272 320.056 624.648 320.056 624.192 320.056H621.984C622.008 321.736 622.032 323.056 622.08 324.064H619.56C619.608 323.056 619.632 321.712 619.656 320.056H617.4C616.92 320.056 616.32 320.056 615.96 320.08V318.232C615.192 319.096 614.352 319.936 613.416 320.728C612.864 319.384 612.696 319.048 612.264 318.52C614.256 316.744 615.096 315.808 616.272 314.104C617.352 312.52 618 311.344 618.816 309.448H616.68C615.456 309.448 613.872 309.496 612.864 309.52V307.168C613.872 307.216 615.456 307.24 616.68 307.24H619.656C619.632 304.36 619.584 302.584 619.512 301.96L622.08 302.128C622.296 302.128 622.44 302.248 622.44 302.368C622.44 302.512 622.32 302.632 622.008 302.824C621.984 303.616 621.984 303.712 621.96 307.24H625.584C626.688 307.24 628.392 307.216 629.424 307.168V309.52C628.392 309.496 626.688 309.448 625.584 309.448H622.704C623.52 311.392 624.216 312.568 625.488 314.224C626.808 315.952 627.576 316.696 630.048 318.64C629.328 319.384 629.256 319.48 628.536 320.656C627.312 319.624 626.4 318.76 625.632 317.92ZM621.96 312.448V317.848H624.192L625.56 317.824C624.864 317.056 624.288 316.312 623.664 315.4C622.968 314.368 622.416 313.432 621.96 312.448ZM616.296 317.824L617.4 317.848H619.656V312.52C618.984 313.984 618.168 315.376 617.208 316.696C616.92 317.08 616.608 317.44 616.296 317.824ZM609.792 319.144V312.88C609.384 313.72 608.976 314.368 608.328 315.352C607.776 314.08 607.56 313.72 606.936 312.976C609.144 309.568 610.536 306.232 611.616 301.648L613.92 302.536C614.136 302.632 614.256 302.752 614.256 302.896C614.256 303.064 614.184 303.136 613.68 303.28C613.008 305.632 612.672 306.616 611.856 308.584L612.216 308.608C612.456 308.632 612.6 308.728 612.6 308.848C612.6 309.016 612.456 309.136 612.12 309.328V319.144C612.12 321.304 612.144 323.008 612.192 324.064H609.72C609.768 322.984 609.792 321.352 609.792 319.144Z" fill="#424242"/>
<path d="M858.032 338.704H855.032C853.712 338.704 853.112 338.728 851.672 338.776V336.904C852.608 336.952 853.976 336.976 855.032 336.976H858.848C858.848 336.04 858.848 335.08 858.776 334.144L860.72 334.288C861.008 334.312 861.128 334.408 861.128 334.552C861.128 334.672 861.008 334.816 860.672 335.008V336.976H864.704C866.024 336.976 866.864 336.952 868.04 336.904V338.776C867.176 338.752 865.616 338.704 864.704 338.704H861.296C861.656 339.184 861.968 339.568 862.424 340.096C864.272 342.136 865.88 343.312 868.712 344.68C868.088 345.28 867.848 345.568 867.392 346.336C865.544 345.28 864.68 344.68 863.48 343.6C862.28 342.496 861.44 341.56 860.672 340.384V344.344C860.672 345.952 860.696 347.176 860.72 347.872H858.8C858.824 347.032 858.848 345.88 858.848 344.344V340.312C858.128 341.44 857.264 342.52 856.304 343.456C854.984 344.728 853.496 345.76 851.96 346.744C851.6 346.096 851.432 345.88 850.832 345.208C854.312 343.048 856.112 341.44 858.032 338.704ZM849.872 332.56L850.424 332.608C850.664 332.632 850.808 332.728 850.808 332.872C850.808 332.992 850.688 333.136 850.352 333.328C850.352 333.832 850.352 333.832 850.328 337.432V343.144C850.328 345.592 850.352 346.768 850.4 348.064H848.432C848.48 346.984 848.504 345.352 848.504 343.144V335.464C847.856 336.88 847.496 337.504 846.68 338.824C846.248 337.936 846.056 337.624 845.528 337.048C847.784 333.568 849.104 330.4 850.232 325.696L852.08 326.416C852.296 326.512 852.416 326.632 852.416 326.776C852.416 326.968 852.32 327.016 851.84 327.184C851.12 329.584 850.784 330.52 849.872 332.56ZM863.768 333.856H855.992V335.104H854.12C854.168 334.528 854.192 333.736 854.192 332.536V328.768C854.192 327.736 854.168 327.28 854.12 326.656C854.96 326.68 855.704 326.704 856.76 326.704H863C864.176 326.704 864.704 326.68 865.64 326.656C865.616 327.088 865.592 328.024 865.592 328.768V332.176C865.592 333.448 865.592 334.024 865.64 334.672H863.768V333.856ZM863.768 332.128V328.432H855.992V332.128H863.768ZM879.56 345.592V340.024C879.56 338.992 879.56 338.536 879.488 337.912C880.328 337.936 881.072 337.96 882.152 337.96H890.192C891.344 337.96 891.896 337.936 892.832 337.912C892.784 338.344 892.76 339.28 892.76 340.024V345.592C893.48 345.568 894.176 345.544 894.896 345.52V347.416C893.864 347.368 892.16 347.344 891.056 347.344H880.592C879.056 347.344 878.096 347.368 876.776 347.416V345.52C877.712 345.568 878.624 345.568 879.56 345.592ZM881.336 345.592H883.28V339.664H881.336V345.592ZM890.984 345.592V339.664H888.848V345.592H890.984ZM887.096 345.592V339.664H885.032V345.592H887.096ZM890.336 336.016H881.984V336.832H880.088C880.136 336.28 880.16 335.464 880.16 334.288V329.248C880.16 328.216 880.16 327.76 880.088 327.136C880.928 327.16 881.672 327.184 882.752 327.184H889.592C890.744 327.184 891.296 327.16 892.232 327.136C892.184 327.568 892.16 328.48 892.16 329.248V334.168C892.16 335.44 892.184 336.04 892.232 336.664H890.336V336.016ZM890.336 334.288V332.44L881.984 332.392V334.288H890.336ZM890.336 330.736V328.888H881.984V330.736H890.336ZM874.088 327.52L875.48 326.368C876.632 327.376 877.256 328.048 878.336 329.392L876.728 330.64C875.792 329.296 875.216 328.624 874.088 327.52ZM872.072 333.304L873.464 332.104C874.808 333.28 875.432 333.928 876.44 335.176L874.832 336.472C873.776 335.032 873.2 334.36 872.072 333.304ZM877.328 336.76L878.84 337.864C878.576 338.512 878.576 338.512 878.168 339.472C877.28 341.68 876.848 342.568 875.288 345.64C874.928 346.336 874.808 346.6 874.544 347.2V347.416C874.544 347.584 874.448 347.704 874.304 347.704C874.232 347.704 874.184 347.68 873.992 347.536L872.48 346.216C873.92 344.344 875.96 340.384 877.328 336.76ZM902.576 332.8H900.8C900.008 332.8 899.528 332.824 898.88 332.848V331.024L900.8 331.048H902.936C902.912 328.24 902.864 326.512 902.792 325.888L904.856 326.056C905.096 326.08 905.216 326.176 905.216 326.32C905.216 326.44 905.096 326.56 904.784 326.752C904.76 327.472 904.76 327.568 904.76 331.048H906.632C907.376 331.048 907.712 331.048 908.552 331.024V332.848C908.048 332.824 907.28 332.8 906.632 332.8H904.76V334.96C906.272 335.92 907.448 336.832 908.384 337.816L907.136 339.424C906.584 338.704 905.576 337.696 904.76 336.976V340.984C904.76 344.56 904.784 346.216 904.856 348.016H902.816C902.888 346.456 902.936 344.08 902.936 340.984V337.336C902.48 338.608 902.264 339.136 901.808 340.072C901.016 341.656 900.44 342.64 899.288 344.248C899.048 343.504 898.688 342.904 898.208 342.448C900.416 339.256 901.52 336.832 902.576 332.8ZM915.368 344.968V335.776C914.864 336.784 914.408 337.528 913.664 338.584C911.96 341.032 910.52 342.616 907.784 345.016C907.52 344.44 907.04 343.912 906.512 343.528C908.696 341.704 909.728 340.648 911.24 338.704C912.8 336.712 913.784 335.104 914.864 332.8H911.36C910.568 332.8 910.112 332.824 909.464 332.848V331.024L911.36 331.048H915.368C915.368 330.184 915.344 329.296 915.344 328.432C915.32 327.664 915.32 326.872 915.224 326.104L917.312 326.272C917.528 326.296 917.648 326.392 917.648 326.512C917.648 326.656 917.552 326.776 917.216 326.968C917.168 328.336 917.192 329.68 917.192 331.048H918.896C919.616 331.048 919.976 331.048 920.816 331.024V332.848C920.312 332.824 919.544 332.8 918.896 332.8H917.192V339.376C917.192 341.08 917.192 342.616 917.24 343.936C917.264 344.632 917.264 345.304 917.264 345.712C917.264 346.888 916.904 347.416 915.896 347.704C915.392 347.872 914.816 347.92 913.112 347.944C913.064 346.984 912.992 346.648 912.656 345.856C913.424 345.928 913.784 345.952 914.36 345.952C915.248 345.952 915.368 345.832 915.368 344.968ZM937.088 339.472H943.28L943.616 339.016L945.056 340.312C945.2 340.456 945.248 340.528 945.248 340.648C945.248 340.816 945.104 340.936 944.6 341.056C944.096 345.016 943.424 346.648 942.032 347.392C941.216 347.848 940.472 347.944 937.736 347.944C937.616 347.056 937.52 346.696 937.208 345.832C937.904 345.856 938.672 345.88 939.176 345.88C940.52 345.88 941.24 345.64 941.6 345.064C942.128 344.152 942.512 342.976 942.68 341.152H936.44C935.624 342.928 934.472 344.176 932.696 345.424C930.92 346.672 929.336 347.32 926.384 348.04C926.072 347.2 925.952 346.936 925.616 346.288C929.168 345.496 931.688 344.2 933.344 342.328C933.68 341.944 933.992 341.56 934.256 341.152H931.136C929.792 341.152 929.192 341.176 927.8 341.224V339.424C928.712 339.448 930.152 339.472 931.136 339.472H935.12C935.504 338.512 935.72 337.504 935.888 336.496L937.784 336.952C938.024 337.024 938.168 337.144 938.168 337.288C938.168 337.456 938.072 337.528 937.592 337.648C937.424 338.32 937.28 338.92 937.088 339.472ZM937.568 331.12V331.72C937.568 333.232 936.608 333.688 933.44 333.688C933.392 332.896 933.32 332.56 933.008 331.672C933.728 331.72 934.136 331.744 934.664 331.744C935.552 331.744 935.696 331.624 935.696 330.76V327.376C935.696 326.608 935.672 326.248 935.648 325.84L937.544 326.008C937.832 326.032 938 326.104 938 326.248C938 326.392 937.856 326.512 937.52 326.728V329.104C937.52 329.656 937.52 330.352 937.568 331.12ZM940.688 328.96L941.696 327.64C943.856 328.984 945.08 329.896 947.36 331.984L946.016 333.52C943.16 330.76 942.368 330.088 940.688 328.96ZM931.088 327.736L932.624 328.72C932.864 328.84 932.96 328.984 932.96 329.128C932.96 329.296 932.816 329.392 932.288 329.368C930.44 331.648 928.736 333.136 926.216 334.696C925.928 334.096 925.76 333.832 925.184 333.112C927.872 331.48 929.528 329.992 931.088 327.736ZM940.496 330.52L941.936 331.408C942.224 331.576 942.32 331.672 942.32 331.816C942.32 332.056 942.248 332.08 941.6 332.152C938.96 334.576 937.184 335.776 934.64 336.88C932 338.008 930.056 338.608 925.616 339.64C925.4 338.824 925.304 338.536 924.968 337.888C930.608 336.784 933.464 335.776 936.824 333.664C938 332.92 938.912 332.152 940.496 330.52ZM964.112 329.56V334.264C965.408 333.688 966.68 333.088 967.88 332.344C968.888 331.696 969.824 331 970.76 330.256L972.512 331.552C972.68 331.648 972.752 331.768 972.752 331.864C972.752 332.104 972.56 332.176 971.888 332.2C969.152 333.976 966.896 335.104 964.112 336.064V344.752C964.112 345.136 964.208 345.304 964.664 345.4C965.12 345.496 965.936 345.52 967.184 345.52C969.848 345.52 970.688 345.4 971.048 345.064C971.408 344.68 971.576 343.936 971.576 342.304V341.8C972.32 342.088 972.512 342.136 973.52 342.376C973.376 345.4 973.064 346.36 972.104 346.864C971.384 347.248 970.4 347.344 966.752 347.344C964.832 347.344 964.04 347.296 963.392 347.128C962.576 346.936 962.216 346.336 962.216 345.232V329.56C962.216 327.664 962.192 326.656 962.144 325.96L964.184 326.128C964.448 326.128 964.592 326.224 964.592 326.368C964.592 326.512 964.448 326.632 964.136 326.848C964.112 327.568 964.112 328.144 964.112 329.56ZM956.84 332.584L957.536 332.632C957.8 332.632 957.944 332.728 957.944 332.872C957.944 333.016 957.824 333.136 957.488 333.328L957.464 336.064V342.976C957.464 345.616 957.512 346.768 957.584 348.016H955.544C955.616 346.72 955.664 345.184 955.664 342.976V334.96C954.488 337.192 953.912 338.032 952.472 339.928C951.968 338.944 951.8 338.704 951.344 338.128C952.64 336.544 953.36 335.44 954.392 333.496C955.568 331.288 956.264 329.392 957.248 325.744L959.12 326.464C959.336 326.56 959.456 326.68 959.456 326.824C959.456 327.016 959.36 327.064 958.856 327.208C958.088 329.728 957.752 330.664 956.84 332.584ZM855.488 359.328L855.032 357.504C857.528 356.808 859.424 356.544 861.896 356.544C863.12 356.544 863.912 356.592 865.376 356.784L865.112 358.656C863.72 358.488 862.352 358.44 861.248 358.44C859.064 358.44 857.816 358.632 855.488 359.328ZM855.584 363.96L857.024 364.896C856.448 365.664 856.256 366.096 856.256 366.648C856.256 368.112 857.744 368.76 861.056 368.76C863.048 368.76 864.512 368.592 866.312 368.208C866.144 369.096 866.072 369.576 866.072 370.392C864.368 370.632 863.072 370.728 861.248 370.728C856.424 370.728 854.336 369.6 854.336 366.96C854.336 365.88 854.648 365.136 855.584 363.96ZM849.296 354.384L851.432 354.792C851.696 354.84 851.864 354.984 851.864 355.152C851.864 355.392 851.672 355.56 851.216 355.704C850.328 360.768 850.184 361.92 850.184 364.68C850.184 367.56 850.472 369.432 851.288 371.784C850.448 372.096 850.136 372.24 849.344 372.648C848.576 370.368 848.216 367.896 848.216 364.824C848.216 362.448 848.384 360.6 848.96 356.88C849.128 355.848 849.248 355.296 849.296 354.384ZM882.08 353.256L884.24 353.4C884.576 353.424 884.792 353.544 884.792 353.736C884.792 353.904 884.672 354.048 884.36 354.24C884.336 355.128 884.312 355.848 884.312 356.304C884.312 356.832 884.312 357.432 884.336 358.296C887.288 358.224 888.248 358.08 890.216 357.432L890.768 359.28C888.776 359.856 887.264 360.048 884.336 360.12C884.36 362.064 884.408 364.2 884.48 366.768C887.48 367.656 889.664 368.736 891.704 370.056C891.128 370.728 890.912 371.04 890.504 371.856C888.824 370.584 886.544 369.408 884.48 368.688C884.432 370.056 884.264 370.656 883.592 371.328C882.8 372.096 881.648 372.48 879.896 372.48C876.968 372.48 875.12 371.28 875.12 369.36C875.12 367.368 877.16 366.048 880.256 366.048C881.024 366.048 881.672 366.12 882.44 366.288C882.392 364.056 882.344 362.208 882.272 357.288C882.224 354.552 882.2 354.216 882.08 353.256ZM882.488 368.112C881.672 367.896 880.928 367.8 880.016 367.8C878.192 367.8 877.064 368.376 877.064 369.312C877.064 370.272 877.976 370.752 879.68 370.752C881.072 370.752 881.816 370.392 882.128 369.864C882.392 369.432 882.488 368.88 882.488 368.112ZM904.448 357L903.872 354.84C904.856 354.792 906.296 354.6 907.76 354.36C909.296 354.12 910.856 353.832 912.008 353.568L912.32 353.352L913.856 354.72C914.024 354.864 914.072 354.96 914.072 355.08C914.072 355.224 914.024 355.272 913.544 355.44C911.312 358.128 910.04 359.496 908.264 361.416L906.992 362.496L908.48 361.8C909.656 361.296 910.568 361.128 911.744 361.128C915.2 361.128 917.552 363.24 917.552 366.336C917.552 368.568 916.4 370.512 914.384 371.64C913.16 372.336 911.552 372.696 909.848 372.696C906.32 372.696 904.64 371.568 904.64 369.672C904.64 368.16 905.912 367.008 907.592 367.008C909.296 367.008 911 367.8 911.984 370.728C913.016 370.56 913.544 370.176 914.12 369.648C914.96 368.832 915.44 367.68 915.44 366.384C915.44 364.2 913.904 362.832 911.36 362.832C908.696 362.832 906.512 363.912 903.032 367.08L901.568 365.376C904.016 363.384 905.456 361.968 907.664 359.568C908.696 358.464 909.632 357.408 910.616 356.256L911.744 355.2L910.112 355.632C908.096 356.064 906.32 356.496 904.448 357ZM910.016 371.04C909.512 369.216 908.816 368.472 907.616 368.472C906.776 368.472 906.248 368.88 906.248 369.6C906.248 370.56 907.328 371.112 909.104 371.112C909.464 371.112 909.728 371.088 910.016 371.04ZM933.896 358.272V359.232C933.896 359.688 934.04 359.784 934.952 359.784C936.08 359.784 936.296 359.688 936.296 358.608C936.584 358.728 937.064 358.848 937.688 359.016C937.544 360.888 937.328 361.152 935.168 361.152C932.552 361.152 932.288 361.032 932.288 359.784V358.272H930.584C929.888 359.64 929.408 360.264 928.52 360.96C927.608 361.68 926.816 362.088 925.328 362.616C925.112 361.848 925.016 361.608 924.68 361.128C926.96 360.336 927.92 359.688 928.712 358.272H927.488C926.552 358.272 926.12 358.272 925.112 358.32V356.64C925.784 356.688 926.792 356.688 927.488 356.688H930.56V355.464H928.808C927.872 355.464 927.416 355.464 926.408 355.512V353.856C927.08 353.88 928.088 353.904 928.808 353.904H930.56C930.56 352.56 930.536 352.2 930.512 351.792L932.336 351.96C932.648 351.984 932.792 352.08 932.792 352.224C932.792 352.344 932.672 352.488 932.336 352.68V353.904H934.304C935.24 353.904 935.672 353.88 936.68 353.856V355.512C936.008 355.464 935 355.464 934.304 355.464H932.336V356.688H935.24C936.2 356.688 936.632 356.688 937.64 356.64V358.32C936.968 358.296 935.96 358.272 935.24 358.272H933.896ZM943.76 356.064L944.12 355.608L945.368 356.736C945.536 356.88 945.584 356.976 945.584 357.096C945.584 357.264 945.464 357.384 945.2 357.48L944.912 357.576C944.936 360.408 945.08 362.304 945.416 363.816C945.656 364.992 945.944 365.76 946.16 365.76C946.208 365.76 946.256 365.736 946.28 365.688C946.448 365.328 946.568 364.728 946.616 363.936L946.64 363.576C946.88 363.792 947.24 364.032 947.936 364.512L947.864 364.992C947.552 367.272 947.12 368.088 946.232 368.088C945.512 368.088 944.72 367.224 944.216 365.832C943.808 364.704 943.544 363.36 943.424 361.656C943.328 360.336 943.256 358.704 943.232 357.72H941.792C941.72 359.16 941.552 360.6 941.24 361.992C941.984 362.496 942.56 362.976 943.376 363.72L942.296 365.28C941.672 364.704 941.168 364.224 940.664 363.816C940.544 364.08 940.424 364.32 940.304 364.584C939.392 366.336 938.288 367.464 935.864 369.072C935.312 368.16 935.216 368.04 934.808 367.656C935.432 367.272 935.936 366.912 936.392 366.576C932.792 367.224 931.424 367.392 926.768 367.968C926.528 368.256 926.384 368.376 926.264 368.376C926.144 368.376 925.976 368.232 925.928 368.04L925.328 366.144C927.416 366.048 929 365.952 930.56 365.808V364.032H928.808C927.872 364.032 927.416 364.032 926.408 364.08V362.424C927.08 362.448 928.088 362.472 928.808 362.472H930.56V362.376C930.56 361.608 930.536 361.248 930.512 360.84L932.336 361.008C932.648 361.032 932.792 361.104 932.792 361.248C932.792 361.392 932.672 361.512 932.336 361.728V362.472H934.352C935.288 362.472 935.72 362.472 936.728 362.424V364.08C936.056 364.056 935.048 364.032 934.352 364.032H932.336V365.616C933.68 365.472 935.096 365.256 936.872 364.992L936.944 366.12C937.688 365.472 938.192 364.824 938.624 363.984C938.84 363.576 939.032 363.144 939.2 362.712C938.672 362.352 938.12 362.04 937.448 361.656L938.264 360.288C938.792 360.576 939.272 360.816 939.656 361.056C939.896 359.952 939.992 358.848 940.04 357.72C939.44 357.72 938.984 357.744 938.168 357.768V356.016C938.864 356.04 939.56 356.064 940.112 356.064C940.112 355.656 940.112 355.248 940.112 354.816C940.112 353.592 940.088 352.704 940.04 351.816L941.816 351.984C942.176 352.008 942.344 352.128 942.344 352.296C942.344 352.44 942.224 352.56 941.84 352.704V354.912C941.84 355.32 941.84 355.704 941.84 356.064H943.76ZM927.704 368.664L929.384 369.36C929.552 369.432 929.624 369.504 929.624 369.624C929.624 369.768 929.528 369.84 929.216 369.936C928.328 372 927.632 373.032 926.36 374.16C925.808 373.44 925.52 373.176 924.944 372.768C926.36 371.544 927.032 370.56 927.704 368.664ZM935.384 373.008L933.608 373.992C932.912 372.408 932.168 371.016 931.448 370.008L932.84 369.12C934.064 370.584 934.616 371.448 935.384 373.008ZM942.152 370.032L943.4 368.856C945.104 370.056 946.352 371.232 947.36 372.624L945.704 373.92C944.624 372.312 943.352 370.92 942.152 370.032ZM941.12 372.696L939.416 373.776C938.456 371.928 937.928 371.088 936.968 369.888L938.288 368.928C939.608 370.296 940.256 371.136 941.12 372.696ZM957.944 368.736V369.888H955.856C955.904 368.976 955.928 367.56 955.928 365.664V361.08C955.928 359.112 955.904 358.296 955.856 357.264C956.504 357.288 957.08 357.288 957.896 357.288H967.472C968.384 357.288 968.792 357.288 969.512 357.264C969.488 358.008 969.44 359.64 969.44 361.08V365.664C969.44 367.872 969.464 368.832 969.512 369.888H967.424V368.736H957.944ZM957.944 366.864H967.424V359.16H957.944V366.864ZM992.216 358.224L988.928 358.464C984.944 358.752 983.504 358.872 981.728 359.016L981.512 356.832C983.576 356.808 986.288 356.76 988.784 356.592L992.984 356.328L993.344 355.896L994.928 357.264C995.096 357.408 995.168 357.504 995.168 357.624C995.168 357.816 995.096 357.864 994.592 357.984C993.32 360.432 992.48 361.656 991.136 363.12C993.728 364.992 995.816 367.08 997.64 369.624L995.888 371.088C993.824 368.112 992.432 366.624 989.84 364.56C987.176 367.368 984.584 369.144 980.36 371.112C980 370.272 979.784 369.936 979.208 369.288C983.864 367.248 986.096 365.64 988.856 362.76C990.152 361.416 991.088 360.192 992.216 358.224Z" fill="#424242"/>
<path d="M148.744 391.008L149.752 391.632C149.896 391.704 149.968 391.8 149.968 391.896C149.968 392.064 149.848 392.136 149.368 392.184C148.984 392.448 148.984 392.448 147.88 393.288C147.616 393.48 147.352 393.672 146.992 393.912C147.184 394.032 147.4 394.152 147.616 394.272C148.984 395.016 150.448 395.52 153.328 396.264C152.8 396.888 152.608 397.152 152.248 397.896C148.768 396.84 147.04 396.024 144.976 394.464C143.704 393.504 142.888 392.568 141.928 391.008C141.016 391.584 140.08 392.112 139.096 392.568H139.144C139.432 392.592 139.576 392.664 139.576 392.808C139.576 392.952 139.456 393.072 139.12 393.288V395.352C140.752 395.088 142.48 394.752 144.424 394.32L144.448 395.808C142.312 396.456 139.288 397.08 134.512 397.8C134.32 398.064 134.152 398.208 134.032 398.208C133.912 398.208 133.744 398.04 133.696 397.872L133.096 395.976C134.44 395.928 135.832 395.784 137.344 395.592V393.336C135.472 394.104 133.456 394.728 131.2 395.208C131.032 394.56 130.936 394.296 130.576 393.576C133.792 393 136.528 392.16 139.048 391.008H136C134.104 391.008 133.24 391.032 131.224 391.104V389.376C132.568 389.424 134.584 389.472 136 389.472H141.112V389.256C141.112 388.656 141.088 388.296 141.088 387.984C140.704 388.032 140.248 388.056 139.696 388.056C139.624 387.384 139.576 387.12 139.384 386.472C139.792 386.496 140.08 386.496 140.32 386.496C140.968 386.496 141.04 386.424 141.04 385.704V384.72H138.544V385.416C138.544 387.312 138.568 388.08 138.592 388.92H136.768C136.816 388.08 136.84 386.952 136.84 385.416V384.72H134.536V386.04C134.536 387.072 134.56 387.6 134.584 388.08H132.904C132.952 387.624 132.976 386.928 132.976 386.04V384.984C132.976 384.192 132.952 383.808 132.904 383.28C133.528 383.304 134.248 383.328 135.04 383.328H136.84V382.08H133.144C132.352 382.08 131.896 382.08 131.248 382.104V380.568C131.728 380.592 132.52 380.616 133.024 380.616C132.664 380.256 132.232 379.896 131.872 379.704C133.048 378.24 133.48 377.448 133.888 376.056L135.28 376.56C135.544 376.656 135.688 376.752 135.688 376.92C135.688 377.064 135.568 377.112 135.136 377.256C135.064 377.448 134.968 377.64 134.872 377.832H136.84C136.816 376.872 136.792 376.176 136.744 375.744L138.592 375.912C138.88 375.936 139.024 376.008 139.024 376.152C139.024 376.296 138.88 376.416 138.568 376.632C138.544 376.944 138.544 377.304 138.544 377.832H140.68C141.4 377.832 141.76 377.808 142.6 377.784V379.344C142.072 379.32 141.328 379.296 140.68 379.296H138.544V380.616H141.784C142.504 380.616 142.84 380.592 143.68 380.568V382.104L141.784 382.08H138.544V383.328H140.536C141.448 383.328 141.88 383.304 142.648 383.28C142.624 383.544 142.6 384.384 142.6 384.696V385.2C142.6 385.416 142.6 385.584 142.624 386.136L142.648 386.592C142.648 387.192 142.408 387.576 141.856 387.792L142.96 387.888C143.248 387.912 143.392 387.984 143.392 388.128C143.392 388.272 143.272 388.392 142.936 388.608V389.472H148C149.92 389.472 151.096 389.448 152.776 389.376V391.104C151.792 391.056 150.112 391.032 148.744 391.008ZM148.072 391.008H143.728C144.328 391.776 144.976 392.472 145.72 393.072C146.56 392.448 147.352 391.752 148.072 391.008ZM133.12 380.616H136.84V379.296H134.08C133.768 379.752 133.456 380.208 133.12 380.616ZM151.216 385.944V386.328C151.216 388.152 150.472 388.584 147.112 388.632C147.04 387.768 146.968 387.408 146.656 386.592C147.352 386.64 147.736 386.664 148.312 386.664C149.248 386.664 149.368 386.568 149.368 385.68V379.728C149.368 377.808 149.296 376.68 149.176 376.2L151.288 376.368C151.504 376.392 151.648 376.488 151.648 376.632C151.648 376.776 151.528 376.896 151.216 377.088C151.168 377.544 151.168 377.544 151.144 379.728V383.616C151.144 384 151.192 385.2 151.216 385.944ZM144.88 377.16L146.728 377.328C147.016 377.352 147.136 377.424 147.136 377.568C147.136 377.712 147.016 377.856 146.68 378.048V382.152C146.68 384.048 146.68 384.816 146.728 385.656H144.904C144.928 384.816 144.952 383.688 144.952 382.152V380.784C144.952 379.008 144.928 377.808 144.88 377.16ZM162.4 387.96V393.024C162.952 393.768 163.504 394.2 164.392 394.632C166.192 395.496 167.728 395.736 171.376 395.736C174.832 395.736 177.184 395.664 179.632 395.52C179.32 396.24 179.248 396.528 179.152 397.416C175.336 397.488 174.136 397.512 170.992 397.512C167.872 397.512 165.52 397.056 163.696 396.096C162.832 395.616 162.208 395.088 161.608 394.32C160.984 394.992 160.504 395.424 158.776 397.008C158.656 397.416 158.584 397.536 158.416 397.536C158.32 397.536 158.2 397.488 158.08 397.344L156.952 395.856C157.672 395.424 158.392 394.968 159.088 394.464C159.616 394.056 160.096 393.648 160.6 393.216V387.624H159.544C158.704 387.624 158.104 387.624 157.288 387.672V385.824C157.84 385.848 158.848 385.872 159.544 385.872H160.24C161.944 385.848 161.944 385.848 162.448 385.824C162.424 386.256 162.424 386.256 162.4 387.96ZM175.288 393.816H167.728V394.68H165.856C165.904 394.104 165.928 393.312 165.928 392.112V389.592C165.928 388.56 165.928 388.104 165.856 387.48C166.696 387.504 167.44 387.504 168.52 387.504H174.52C175.672 387.504 176.224 387.504 177.16 387.48C177.112 387.912 177.088 388.824 177.088 389.592V391.872C177.088 393.144 177.112 393.72 177.16 394.368H175.288V393.816ZM175.288 392.088V389.232H167.728V392.088H175.288ZM170.44 383.976V381H166.888C166.336 381.936 165.76 382.704 164.968 383.592C164.344 382.896 164.128 382.704 163.6 382.368C165.256 380.448 166.192 378.72 166.936 376.2L168.64 376.776C168.928 376.872 169.024 376.968 169.024 377.088C169.024 377.232 168.904 377.328 168.52 377.4C168.232 378.096 167.992 378.72 167.752 379.248H170.44V378C170.44 376.752 170.44 376.752 170.392 375.792L172.288 375.936C172.576 375.96 172.72 376.056 172.72 376.176C172.72 376.32 172.6 376.464 172.264 376.656V379.248H175.144C176.344 379.248 177.04 379.248 178.024 379.2V381.048C177.28 381.024 175.936 381 175.144 381H172.264V383.976H175.696C177.232 383.976 177.928 383.952 179.536 383.904V385.776C178.504 385.728 176.8 385.704 175.696 385.704H166.864C165.304 385.704 164.368 385.728 163.048 385.776V383.904C164.056 383.928 165.64 383.976 166.864 383.976H170.44ZM158.008 377.76L159.256 376.608C160.768 377.952 161.488 378.72 162.52 380.184L160.984 381.384C160 379.992 159.4 379.224 158.008 377.76ZM195.568 392.088V393.816C195.568 395.976 195.592 396.96 195.64 398.04H193.768C193.792 397.104 193.816 395.76 193.816 393.816V392.112C192.064 393.744 190.816 394.608 188.848 395.64C187.336 396.408 186.352 396.792 184.264 397.464C183.928 396.648 183.784 396.408 183.4 395.832C185.704 395.16 187 394.656 188.776 393.744C190.312 392.952 191.272 392.328 192.376 391.344H188.488C186.928 391.344 185.968 391.368 184.648 391.416V389.712C185.656 389.76 187.24 389.784 188.488 389.784H193.816V388.464H190.528C188.968 388.464 188.008 388.464 186.688 388.536V386.808C187.72 386.856 189.28 386.88 190.528 386.88H193.816V385.56H189.328C187.792 385.56 186.832 385.584 185.512 385.632V383.928C186.52 383.952 188.104 384 189.328 384H191.176C190.816 383.16 190.384 382.368 189.904 381.6H188.776C186.928 381.6 186.04 381.624 184 381.696V379.896C185.152 379.944 187.192 379.992 188.56 379.992C188.008 379.056 187.552 378.48 186.664 377.472L187.96 376.488C189.208 377.64 189.664 378.192 190.48 379.512L189.76 379.992H191.944C191.944 376.608 191.944 376.248 191.92 375.84L193.744 376.008C194.032 376.032 194.176 376.128 194.176 376.248C194.176 376.392 194.056 376.536 193.696 376.728V379.992H195.904C195.904 376.608 195.904 376.248 195.88 375.84L197.704 376.008C197.992 376.032 198.136 376.128 198.136 376.248C198.136 376.392 198.016 376.536 197.656 376.728V379.992H198.952C199.696 378.504 200.008 377.64 200.32 376.416L202.216 377.136C202.384 377.208 202.48 377.28 202.48 377.376C202.48 377.52 202.384 377.568 201.976 377.688C201.832 378 201.832 378 201.232 379.2C201.112 379.416 200.992 379.68 200.8 379.992C202.768 379.992 203.944 379.968 205.6 379.896V381.696C204.328 381.648 202.264 381.6 200.8 381.6H198.616L199.144 381.816C199.312 381.888 199.408 381.984 199.408 382.056C199.408 382.2 199.312 382.248 198.88 382.368C198.712 382.68 198.712 382.68 198.04 384H200.272C201.784 384 202.48 383.976 204.088 383.928V385.632C203.056 385.584 201.376 385.56 200.272 385.56H195.568V386.88H199.072C200.608 386.88 201.304 386.88 202.912 386.808V388.536C201.88 388.488 200.176 388.464 199.072 388.464H195.568V389.784H201.184C202.72 389.784 203.416 389.76 205.024 389.712V391.416C203.992 391.392 202.288 391.344 201.184 391.344H196.864C198.16 392.448 199.336 393.168 201.088 393.96C202.624 394.632 203.704 394.968 206.056 395.544C205.552 396.192 205.384 396.48 205.024 397.272C202.408 396.576 200.608 395.808 198.52 394.512C197.416 393.816 196.648 393.216 195.568 392.088ZM193.12 384H196.168C196.552 383.232 196.912 382.44 197.152 381.6H191.872C192.352 382.368 192.784 383.16 193.12 384ZM225.256 382.968H226.96C228.52 382.968 229.36 382.944 230.536 382.872C230.488 383.592 230.488 383.592 230.464 387.552V392.736C230.464 393.096 230.512 394.44 230.536 395.232V395.592C230.536 397.464 229.768 397.896 226.408 397.944C226.336 397.104 226.264 396.744 225.952 395.856C226.648 395.928 227.032 395.952 227.608 395.952C228.544 395.952 228.664 395.832 228.664 394.968V392.256H220.072V392.4C220.12 397.056 220.12 397.056 220.144 398.064H218.224C218.248 397.128 218.272 394.896 218.272 393.384V387.552C218.272 383.616 218.272 383.616 218.224 382.872C219.16 382.944 220.528 382.968 221.824 382.968H223.432V379.392C223.432 377.616 223.408 376.416 223.36 375.768L225.304 375.936C225.568 375.96 225.712 376.056 225.712 376.176C225.712 376.32 225.592 376.464 225.256 376.656V382.968ZM220.072 386.736H228.664V384.696H220.072V386.736ZM228.664 388.392H220.072V390.6H228.664V388.392ZM212.032 377.544L213.424 376.392C214.6 377.4 215.2 378.048 216.28 379.416L214.672 380.664C213.76 379.32 213.184 378.648 212.032 377.544ZM210.064 382.728L211.456 381.528C212.776 382.704 213.4 383.352 214.432 384.6L212.824 385.896C211.768 384.456 211.192 383.808 210.064 382.728ZM215.152 386.928L216.64 388.128C215.008 392.016 214.504 393.12 212.944 396C212.68 396.504 212.56 396.72 212.368 397.176V397.368C212.368 397.56 212.272 397.68 212.128 397.68C212.056 397.68 211.984 397.656 211.816 397.488L210.4 396.192C211.864 394.248 213.424 391.2 215.152 386.928ZM227.92 382.392L226.6 381.312C227.848 379.896 228.832 378.384 229.48 376.848L231.328 377.976C231.472 378.072 231.544 378.144 231.544 378.24C231.544 378.408 231.424 378.48 230.92 378.576C230.752 378.816 230.632 378.984 230.536 379.104C229.216 380.952 229.168 381.024 227.92 382.392ZM217.408 378.12L218.728 377.04C220.288 378.648 220.864 379.392 221.968 381.288L220.336 382.392C219.256 380.4 218.728 379.632 217.408 378.12ZM242.32 386.16H252.448C253.288 386.16 253.912 386.136 254.488 386.112C254.44 386.88 254.44 386.88 254.416 389.928V390.696C254.416 392.472 254.44 393.912 254.488 394.776H252.616V394.392H242.728V394.944H240.88C240.928 394.056 240.952 392.592 240.952 391.176V389.928C240.952 388.944 240.928 387.936 240.928 386.952C240.712 387.048 240.52 387.144 240.304 387.24C239.536 387.576 238.72 387.864 237.184 388.368C236.944 387.624 236.824 387.36 236.488 386.736C239.464 385.992 241.216 385.128 242.344 383.88H239.656C239.56 384.216 239.464 384.552 239.344 384.888L237.616 384.648C238.312 382.488 238.624 381.192 238.72 379.944C240.328 380.016 240.496 380.016 241.072 380.016H243.832C243.88 379.656 243.904 379.296 243.904 378.936H240.664C239.872 378.936 238.552 378.96 237.808 378.984V377.472C238.528 377.496 239.752 377.52 240.664 377.52H243.928C243.928 376.92 243.904 376.32 243.856 375.72L245.752 375.888C246.04 375.912 246.16 375.984 246.16 376.128C246.16 376.272 246.04 376.392 245.704 376.608V377.52H248.992C248.968 376.92 248.968 376.32 248.92 375.72L250.816 375.888C251.104 375.912 251.248 375.984 251.248 376.128C251.248 376.272 251.104 376.392 250.792 376.608C250.768 376.92 250.768 377.208 250.768 377.52H253.576C255.664 377.52 255.664 377.52 256.36 377.496C256.336 377.952 256.336 378.648 256.336 379.296V380.112C256.336 380.784 256.336 381.264 256.36 381.912H254.56V381.36H250.768V382.512H256.624L257.008 382.032L258.28 383.16C258.424 383.28 258.472 383.376 258.472 383.496C258.472 383.64 258.376 383.736 258.088 383.832L257.968 383.88C257.728 385.224 257.584 385.704 257.32 386.088C256.912 386.616 256.408 386.76 254.8 386.76C254.704 385.992 254.632 385.704 254.392 385.032C254.8 385.056 255.064 385.056 255.352 385.056C255.928 385.056 256.12 384.888 256.264 383.88H250.768C250.768 384.504 250.792 385.128 250.816 385.752H248.944C248.968 385.128 248.968 384.504 248.992 383.88H244.576C244.408 384.36 243.184 385.56 242.32 386.16ZM248.992 378.936H245.68C245.656 379.296 245.632 379.656 245.608 380.016H248.992V378.936ZM250.768 378.936V380.016H254.56V378.936H250.768ZM248.992 382.512V381.36H245.44C245.392 381.744 245.296 382.128 245.176 382.512H248.992ZM240.016 382.512H243.256C243.4 382.152 243.544 381.744 243.616 381.36H240.328C240.232 381.696 240.136 382.104 240.016 382.512ZM242.728 388.44H252.616V387.6H242.728V388.44ZM242.728 389.808V390.696H252.616V389.808H242.728ZM242.728 392.064V392.952H252.616V392.064H242.728ZM249.304 395.784L250.384 394.512C253.048 395.496 255.472 396.048 258.52 396.408C258.04 397.032 257.848 397.416 257.632 398.088C254.344 397.608 251.656 396.864 249.304 395.784ZM245.176 394.584L246.496 395.448C246.664 395.544 246.736 395.664 246.736 395.808C246.736 396.024 246.592 396.096 246.064 396.096C245.272 396.36 244.744 396.552 243.592 396.936C242.128 397.44 239.968 397.92 237.52 398.28C237.4 397.68 237.184 397.176 236.824 396.648C240.544 396.192 242.992 395.568 245.176 394.584ZM131.8 418.76V416.768C132.808 416.792 134.392 416.84 135.616 416.84H140.944V409.4H137.68C136.528 409.4 136 409.424 134.8 409.472V407.528C135.52 407.552 136.768 407.576 137.68 407.576H146.296C147.496 407.576 148.192 407.552 149.176 407.528V409.472C148.432 409.424 147.088 409.4 146.296 409.4H143.056V416.84H148.36C149.896 416.84 150.592 416.816 152.2 416.768V418.76C151.168 418.712 149.464 418.688 148.36 418.688H135.616C134.08 418.688 133.12 418.688 131.8 418.76ZM171.712 407.192L172.096 406.712L173.728 408.152C173.896 408.32 173.968 408.392 173.968 408.512C173.968 408.704 173.8 408.824 173.392 408.968C172 410.912 171.088 411.968 169.456 413.408V419.384C169.456 421.544 169.48 422.528 169.528 423.584H167.344C167.392 422.648 167.44 421.328 167.44 419.384V414.968C165.712 416.384 162.688 418.4 159.856 419.888C159.4 418.784 159.232 418.544 158.68 418.088C162.472 416.264 166.168 413.84 168.568 411.608C169.552 410.696 170.248 409.976 170.968 409.064L167.536 409.352C164.728 409.592 163.576 409.664 161.584 409.904L161.344 407.72C163.552 407.672 165.472 407.624 167.656 407.48L171.712 407.192ZM165.784 402.824L167.272 401.672C168.664 402.752 169.288 403.376 170.752 405.2L169.048 406.496C167.848 404.792 167.176 404.048 165.784 402.824ZM171.016 414.32L172.096 412.952C173.68 413.768 175.6 415.184 177.496 417.176L175.984 418.712C174.184 416.672 172.984 415.64 171.016 414.32ZM196.36 419.456L194.752 418.28C194.992 417.44 195.04 416.624 195.04 413.816V409.808C195.04 408.08 194.992 406.88 194.944 406.208L197.152 406.352C197.416 406.376 197.56 406.472 197.56 406.616C197.56 406.736 197.44 406.856 197.104 407.072C197.08 407.528 197.08 407.912 197.08 409.808V416.864C200.632 415.208 202.96 413.576 205.576 410.816C205.936 411.944 206.032 412.136 206.392 412.832C203.224 415.76 201.016 417.248 197.08 419.12C196.984 419.456 196.864 419.6 196.72 419.6C196.624 419.6 196.48 419.528 196.36 419.456ZM190.24 407.768L192.52 408.056C192.664 408.08 192.808 408.2 192.808 408.32C192.808 408.464 192.688 408.584 192.352 408.752C191.944 412.64 191.584 414.152 190.576 415.832C189.472 417.704 188.104 418.952 185.272 420.704C184.936 419.912 184.6 419.408 184 418.88C186.736 417.296 187.984 416.168 188.944 414.368C189.76 412.88 190.24 410.456 190.24 407.768ZM222.184 413.12L225.952 412.52C228.016 412.184 228.88 412.04 229.72 411.848L230.056 413.912C229.288 413.984 228.16 414.104 226.264 414.416L222.496 415.016L222.856 417.176C223.144 418.976 223.432 420.824 223.792 422.648L221.584 423.032C221.368 421.136 221.104 419.24 220.816 417.392L220.48 415.328L216.28 416C214.648 416.264 213.976 416.408 212.512 416.672L212.176 414.632C213.568 414.464 214.456 414.368 215.968 414.128L220.192 413.456L219.64 409.832L216.64 410.312C215.536 410.48 214.432 410.672 213.328 410.888L213.016 408.92C214.024 408.824 214.912 408.704 216.328 408.488L219.352 408.008L219.16 406.808C218.872 405.008 218.752 404.264 218.488 403.112L220.72 403.016H220.768C221.008 403.016 221.128 403.088 221.128 403.256C221.128 403.376 221.056 403.472 220.768 403.712C220.912 404.72 221.008 405.44 221.2 406.736L221.344 407.672L224.344 407.192C225.736 406.976 226.528 406.832 227.632 406.616L227.968 408.584C226.528 408.776 225.832 408.848 224.632 409.04L221.632 409.52L222.184 413.12ZM226.744 404.432L227.728 403.448C228.952 404.36 229.72 404.984 230.944 406.328L229.816 407.36C228.688 405.992 228.016 405.368 226.744 404.432ZM228.688 402.536L229.672 401.6C230.896 402.512 231.664 403.112 232.888 404.432L231.784 405.488C230.704 404.144 229.984 403.52 228.688 402.536ZM256.744 411.776V413.912C255.616 413.864 253.72 413.84 252.448 413.84H242.752C240.976 413.84 240.232 413.84 238.456 413.912V411.776C239.44 411.824 241.528 411.872 242.752 411.872H252.448C254.2 411.872 255.256 411.848 256.744 411.776Z" fill="#424242"/>
<path d="M566 130C518.919 130 473.348 146.609 437.309 176.903C401.269 207.198 377.073 249.235 368.978 295.614C360.884 341.994 369.41 389.742 393.057 430.453C416.704 471.164 453.955 502.228 498.252 518.176C542.55 534.124 591.053 533.934 635.223 517.638C679.394 501.343 716.4 469.987 739.726 429.092C763.053 388.196 771.204 340.382 762.746 294.068C754.287 247.753 729.761 205.908 693.485 175.897L629.742 252.949C647.88 267.954 660.144 288.877 664.373 312.034C668.602 335.191 664.526 359.098 652.863 379.546C641.2 399.994 622.697 415.671 600.612 423.819C578.526 431.967 554.275 432.062 532.126 424.088C509.978 416.114 491.352 400.582 479.529 380.227C467.705 359.871 463.442 335.997 467.489 312.807C471.536 289.617 483.635 268.599 501.654 253.452C519.674 238.305 542.46 230 566 230L566 130Z" fill="#969696"/>
<path d="M693.485 175.897C657.624 146.231 612.541 130 566 130V230C589.27 230 611.812 238.116 629.742 252.949L693.485 175.897Z" fill="#EC6A06"/>
<path d="M530.994 343.062L530.268 347.88C531.258 347 532.028 346.692 533.194 346.692C536.142 346.692 538.144 348.892 538.144 352.126C538.144 353.974 537.418 355.778 536.208 356.922C535.284 357.78 534.074 358.242 532.6 358.242C530.136 358.242 528.31 356.878 527.826 354.722H529.806C530.246 355.822 531.28 356.482 532.6 356.482C533.612 356.482 534.404 356.152 534.998 355.448C535.636 354.7 536.032 353.49 536.032 352.302C536.032 349.926 534.8 348.408 532.908 348.408C531.632 348.408 530.708 348.936 529.96 350.146L528.156 349.926L529.432 341.28H537.198L537 343.062H530.994ZM541.768 341.28H552.328V342.93L544.958 358H542.78L550.04 343.172H541.768V341.28ZM560.419 358.11H557.999C560.837 355.536 562.575 353.248 563.433 350.96C562.289 351.752 561.629 351.994 560.595 351.994C557.735 351.994 555.755 349.794 555.755 346.648C555.755 343.326 557.955 340.994 561.057 340.994C562.553 340.994 563.917 341.544 564.819 342.556C565.655 343.48 566.161 345.086 566.161 346.868C566.161 350.894 564.247 354.612 560.419 358.11ZM561.013 342.71C559.121 342.71 557.823 344.272 557.823 346.56C557.823 348.848 559.077 350.366 560.969 350.366C562.927 350.366 564.093 348.914 564.093 346.45C564.093 344.162 562.883 342.71 561.013 342.71ZM574.405 358.11H571.985C574.823 355.536 576.561 353.248 577.419 350.96C576.275 351.752 575.615 351.994 574.581 351.994C571.721 351.994 569.741 349.794 569.741 346.648C569.741 343.326 571.941 340.994 575.043 340.994C576.539 340.994 577.903 341.544 578.805 342.556C579.641 343.48 580.147 345.086 580.147 346.868C580.147 350.894 578.233 354.612 574.405 358.11ZM574.999 342.71C573.107 342.71 571.809 344.272 571.809 346.56C571.809 348.848 573.063 350.366 574.955 350.366C576.913 350.366 578.079 348.914 578.079 346.45C578.079 344.162 576.869 342.71 574.999 342.71ZM584.233 341.28H587.907C590.547 341.28 591.669 341.456 592.725 342.028C594.023 342.732 594.793 344.316 594.793 346.296C594.793 348.012 594.221 349.376 593.165 350.234C592.197 351.004 591.053 351.246 588.193 351.246H586.257V358H584.233V341.28ZM586.257 349.508H588.193C589.975 349.508 590.745 349.376 591.471 348.98C592.219 348.584 592.659 347.572 592.659 346.252C592.659 345.174 592.351 344.36 591.757 343.788C591.119 343.194 590.261 343.018 588.039 343.018H586.257V349.508ZM595.741 358.154V356.35C596.753 356.482 597.479 356.548 598.337 356.548C600.581 356.548 601.417 355.624 601.417 353.204V341.28H603.485V353.182C603.485 355.096 603.177 356.24 602.451 357.032C601.637 357.89 600.405 358.308 598.535 358.308C597.743 358.308 596.401 358.242 595.741 358.154Z" fill="#424242"/>
<path d="M851.876 386.122H853.658C852.794 386.77 851.408 387.994 850.67 388.804C849.986 389.542 849.374 390.46 848.924 391.45C849.608 390.964 850.22 390.766 851.03 390.766C853.352 390.766 854.972 392.656 854.972 395.392C854.972 398.236 853.262 400.198 850.778 400.198C849.662 400.198 848.672 399.802 847.898 399.064C846.908 398.128 846.458 396.85 846.458 395.05C846.458 392.908 847.268 390.712 848.69 388.966C849.446 388.012 850.58 387.022 851.876 386.122ZM853.28 395.428C853.28 393.448 852.236 392.08 850.688 392.08C849.122 392.08 848.15 393.304 848.15 395.248C848.15 397.39 849.176 398.794 850.778 398.794C852.254 398.794 853.28 397.408 853.28 395.428ZM865.119 386.122H866.901C866.037 386.77 864.651 387.994 863.913 388.804C863.229 389.542 862.617 390.46 862.167 391.45C862.851 390.964 863.463 390.766 864.273 390.766C866.595 390.766 868.215 392.656 868.215 395.392C868.215 398.236 866.505 400.198 864.021 400.198C862.905 400.198 861.915 399.802 861.141 399.064C860.151 398.128 859.701 396.85 859.701 395.05C859.701 392.908 860.511 390.712 861.933 388.966C862.689 388.012 863.823 387.022 865.119 386.122ZM866.523 395.428C866.523 393.448 865.479 392.08 863.931 392.08C862.365 392.08 861.393 393.304 861.393 395.248C861.393 397.39 862.419 398.794 864.021 398.794C865.497 398.794 866.523 397.408 866.523 395.428ZM877.211 386.086C880.055 386.086 881.783 388.75 881.783 393.142C881.783 397.534 880.055 400.198 877.211 400.198C874.367 400.198 872.639 397.534 872.639 393.142C872.639 388.75 874.367 386.086 877.211 386.086ZM877.211 387.472C876.383 387.472 875.681 387.868 875.267 388.606C874.655 389.668 874.331 391.306 874.331 393.286C874.331 395.482 874.907 397.516 875.717 398.254C876.149 398.632 876.635 398.812 877.211 398.812C877.877 398.812 878.453 398.56 878.885 398.074C879.587 397.282 880.091 395.284 880.091 393.286C880.091 390.874 879.587 388.894 878.741 388.066C878.327 387.67 877.823 387.472 877.211 387.472ZM886.602 386.32H889.608C891.768 386.32 892.686 386.464 893.55 386.932C894.612 387.508 895.242 388.804 895.242 390.424C895.242 391.828 894.774 392.944 893.91 393.646C893.118 394.276 892.182 394.474 889.842 394.474H888.258V400H886.602V386.32ZM888.258 393.052H889.842C891.3 393.052 891.93 392.944 892.524 392.62C893.136 392.296 893.496 391.468 893.496 390.388C893.496 389.506 893.244 388.84 892.758 388.372C892.236 387.886 891.534 387.742 889.716 387.742H888.258V393.052ZM897.818 400.126V398.65C898.646 398.758 899.24 398.812 899.942 398.812C901.778 398.812 902.462 398.056 902.462 396.076V386.32H904.154V396.058C904.154 397.624 903.902 398.56 903.308 399.208C902.642 399.91 901.634 400.252 900.104 400.252C899.456 400.252 898.358 400.198 897.818 400.126Z" fill="#424242"/>
<path d="M134.086 437.778L133.492 441.72C134.302 441 134.932 440.748 135.886 440.748C138.298 440.748 139.936 442.548 139.936 445.194C139.936 446.706 139.342 448.182 138.352 449.118C137.596 449.82 136.606 450.198 135.4 450.198C133.384 450.198 131.89 449.082 131.494 447.318H133.114C133.474 448.218 134.32 448.758 135.4 448.758C136.228 448.758 136.876 448.488 137.362 447.912C137.884 447.3 138.208 446.31 138.208 445.338C138.208 443.394 137.2 442.152 135.652 442.152C134.608 442.152 133.852 442.584 133.24 443.574L131.764 443.394L132.808 436.32H139.162L139 437.778H134.086ZM146.195 439.416V438.426C148.049 438.336 148.895 437.742 149.273 436.23H150.389V450H148.751V439.416H146.195ZM159.853 439.182H158.359C158.521 437.31 160.033 436.086 162.193 436.086C164.623 436.086 166.153 437.418 166.153 439.524C166.153 440.964 165.451 441.954 163.975 442.584C165.721 443.178 166.549 444.24 166.549 445.986C166.549 447.552 165.811 448.902 164.587 449.622C163.921 450 163.093 450.198 162.085 450.198C159.601 450.198 157.945 448.92 157.837 446.94H159.367C159.475 448.02 160.537 448.74 162.013 448.74C163.795 448.74 164.857 447.75 164.857 446.076C164.857 445.05 164.443 444.258 163.669 443.826C163.165 443.538 162.535 443.412 161.581 443.412C161.419 443.412 161.239 443.43 161.077 443.43V442.026C161.347 442.044 161.491 442.044 161.653 442.044C163.381 442.044 164.461 441.126 164.461 439.65C164.461 438.336 163.579 437.526 162.121 437.526C160.915 437.526 160.033 438.174 159.853 439.182ZM175.004 450.09H173.024C175.346 447.984 176.768 446.112 177.47 444.24C176.534 444.888 175.994 445.086 175.148 445.086C172.808 445.086 171.188 443.286 171.188 440.712C171.188 437.994 172.988 436.086 175.526 436.086C176.75 436.086 177.866 436.536 178.604 437.364C179.288 438.12 179.702 439.434 179.702 440.892C179.702 444.186 178.136 447.228 175.004 450.09ZM175.49 437.49C173.942 437.49 172.88 438.768 172.88 440.64C172.88 442.512 173.906 443.754 175.454 443.754C177.056 443.754 178.01 442.566 178.01 440.55C178.01 438.678 177.02 437.49 175.49 437.49ZM184.845 436.32H187.851C190.011 436.32 190.929 436.464 191.793 436.932C192.855 437.508 193.485 438.804 193.485 440.424C193.485 441.828 193.017 442.944 192.153 443.646C191.361 444.276 190.425 444.474 188.085 444.474H186.501V450H184.845V436.32ZM186.501 443.052H188.085C189.543 443.052 190.173 442.944 190.767 442.62C191.379 442.296 191.739 441.468 191.739 440.388C191.739 439.506 191.487 438.84 191.001 438.372C190.479 437.886 189.777 437.742 187.959 437.742H186.501V443.052ZM196.061 450.126V448.65C196.889 448.758 197.483 448.812 198.185 448.812C200.021 448.812 200.705 448.056 200.705 446.076V436.32H202.397V446.058C202.397 447.624 202.145 448.56 201.551 449.208C200.885 449.91 199.877 450.252 198.347 450.252C197.699 450.252 196.601 450.198 196.061 450.126Z" fill="#424242"/>
<path d="M977.445 257C979.813 257 981.859 258.29 984.277 261.361C986.707 264.448 989.339 269.109 992.923 275.465V275.466L993.812 277.04V277.039C996.795 282.327 998.967 286.185 1000.08 289.199C1001.19 292.193 1001.14 294.065 1000.08 295.585C998.988 297.148 997.027 298.058 993.451 298.528C989.883 298.998 984.992 299 978.335 299H976.556C969.899 299 965.007 298.998 961.439 298.528C957.864 298.058 955.903 297.148 954.813 295.585C953.754 294.065 953.705 292.193 954.811 289.199C955.923 286.185 958.096 282.327 961.078 277.039L961.077 277.038L961.967 275.466L961.968 275.465C965.551 269.109 968.183 264.448 970.613 261.361C973.031 258.29 975.078 257 977.445 257ZM977.445 286.635C976.557 286.635 975.69 286.959 975.039 287.559C974.385 288.16 974.001 288.995 974.001 289.885C974.001 290.775 974.385 291.61 975.039 292.212C975.69 292.811 976.557 293.136 977.445 293.136C978.333 293.136 979.2 292.811 979.851 292.212C980.504 291.61 980.89 290.775 980.89 289.885C980.89 288.995 980.504 288.16 979.851 287.559C979.2 286.959 978.333 286.635 977.445 286.635ZM977.445 266.479C976.719 266.479 976.008 266.743 975.472 267.237C974.932 267.734 974.611 268.425 974.611 269.166V280.417C974.611 281.158 974.932 281.849 975.472 282.346C976.008 282.84 976.719 283.104 977.445 283.104C978.171 283.104 978.883 282.84 979.419 282.346C979.958 281.849 980.278 281.158 980.278 280.417V269.166C980.278 268.425 979.958 267.734 979.419 267.237C978.883 266.744 978.171 266.479 977.445 266.479Z" fill="#FF9747" stroke="#5C5C5C" stroke-width="2"/>
<path d="M904.999 153C901.24 157.971 900.766 164.076 904.999 171C909.232 177.924 908.758 184.029 904.999 189M883.999 153C880.24 157.971 879.766 164.076 883.999 171C888.232 177.924 887.758 184.029 883.999 189M926.999 153C923.24 157.971 922.766 164.076 926.999 171C931.232 177.924 930.758 184.029 926.999 189" stroke="#EC6A06" stroke-width="3.85714" stroke-linecap="round" stroke-linejoin="round"/>
<path d="M974 204H839V243H891L898 237.5L897 232L904.5 224.5V235L912.5 243H974V204Z" fill="#CACACA"/>
<path d="M946 204H866V243H891L898 237.5L897 232L904.5 224.5V235L912.5 243H946V204Z" fill="url(#paint0_linear_644_6556)" stroke="#5C5C5C" stroke-width="2" stroke-linecap="round" stroke-linejoin="round"/>
<path d="M840 204H973M973 243H913M840 243H890.5" stroke="#5C5C5C" stroke-width="2" stroke-linecap="round"/>
<rect x="853" y="198" width="13" height="52" rx="2" fill="#CCCCCC" stroke="#5C5C5C" stroke-width="2"/>
<rect x="946" y="198" width="13" height="52" rx="2" fill="#CCCCCC" stroke="#5C5C5C" stroke-width="2"/>
<path d="M885 261.842L894.931 253L901 261.842V270.132L891.621 274V270.132L885 261.842Z" fill="#AA8769" stroke="#5C5C5C" stroke-width="2" stroke-linejoin="round"/>
<path d="M908 280.5L917 272L922.5 276V282.5L914.5 288.5L908 284.5V280.5Z" fill="#AA8769" stroke="#5C5C5C" stroke-width="2" stroke-linejoin="round"/>
<path d="M885.5 293L890 287.5L894.5 288L896 292L892 297.5L888.5 295.5L885.5 293Z" fill="#AA8769" stroke="#5C5C5C" stroke-width="2" stroke-linejoin="round"/>
<path d="M903.5 255.5C903.5 256.052 903.948 256.5 904.5 256.5C905.052 256.5 905.5 256.052 905.5 255.5H904.5H903.5ZM904.5 248H903.5V255.5H904.5H905.5V248H904.5Z" fill="#5C5C5C"/>
<path d="M917 266.5C917 267.052 917.448 267.5 918 267.5C918.552 267.5 919 267.052 919 266.5L918 266.5L917 266.5ZM918 263.5L917 263.5L917 266.5L918 266.5L919 266.5L919 263.5L918 263.5Z" fill="#AA8769"/>
<path d="M911 267C911 267.552 911.448 268 912 268C912.552 268 913 267.552 913 267H912H911ZM912 256H911V267H912H913V256H912Z" fill="#5C5C5C"/>
<path d="M913 225L921 231.5L927.5 228.5L932 237" stroke="#5C5C5C" stroke-width="2" stroke-linecap="round" stroke-linejoin="round"/>
<path d="M896 210L900.5 215.5L898 219L904.5 224.5" stroke="#5C5C5C" stroke-width="2" stroke-linecap="round" stroke-linejoin="round"/>
<path d="M178.79 289.284L247.084 271.957C249.378 271.375 251.607 273.109 251.607 275.476V336.15C251.607 338.155 249.981 339.78 247.977 339.78H133.63C131.625 339.78 130 338.155 130 336.15V304.488C130 302.827 131.127 301.378 132.737 300.97L143.988 298.114L149.058 238.139H174.468L178.79 289.284Z" fill="#D9D9D9"/>
<path d="M143.163 297.303L148.772 238.387H174.512L179.237 287.966M164.965 222.212C170.485 221.298 176.139 221.634 181.511 223.195C223.832 234.383 237.234 211 237.234 211M130 339.994H251.929V276.916C251.927 275.999 251.716 275.095 251.311 274.272C250.907 273.449 250.319 272.73 249.594 272.169C248.869 271.608 248.025 271.22 247.127 271.035C246.229 270.85 245.3 270.873 244.412 271.101L134.064 299.676C132.901 299.978 131.872 300.657 131.137 301.608C130.402 302.558 130.004 303.726 130.005 304.927L130 339.994Z" stroke="#5C5C5C" stroke-width="2" stroke-linecap="round" stroke-linejoin="round"/>
<path d="M232.963 339.999H205.868V315.613C205.868 314.176 206.439 312.798 207.455 311.782C208.471 310.765 209.85 310.194 211.287 310.194H227.544C228.981 310.194 230.36 310.765 231.376 311.782C232.392 312.798 232.963 314.176 232.963 315.613V339.999ZM186.901 318.317H178.773H186.901ZM159.806 318.317H151.677H159.806Z" fill="#CCCCCC"/>
<path d="M186.901 318.317H178.773M159.806 318.317H151.677M186.813 324.239H178.684M159.718 324.239H151.589M232.963 339.999H205.868V315.613C205.868 314.176 206.439 312.798 207.455 311.782C208.471 310.765 209.85 310.194 211.287 310.194H227.544C228.981 310.194 230.36 310.765 231.376 311.782C232.392 312.798 232.963 314.176 232.963 315.613V339.999Z" stroke="#5C5C5C" stroke-width="2" stroke-linecap="round" stroke-linejoin="round"/>
<path d="M263.858 331.012C276.639 331.012 287 320.651 287 307.87C287 295.089 276.639 284.729 263.858 284.729C251.078 284.729 240.717 295.089 240.717 307.87C240.717 320.651 251.078 331.012 263.858 331.012Z" fill="#CACACA" stroke="#5C5C5C" stroke-width="2"/>
<path d="M254.9 306.94L264.155 294.466C264.879 293.49 266.235 294.096 266.235 295.397V305.051C266.235 305.829 266.767 306.461 267.425 306.461H271.923C272.946 306.461 273.492 307.891 272.817 308.8L263.562 321.274C262.838 322.25 261.482 321.644 261.482 320.343V310.689C261.482 309.911 260.95 309.279 260.292 309.279H255.794C254.773 309.279 254.227 307.849 254.903 306.94" fill="#FD9B50"/>
<path d="M254.9 306.94L264.155 294.466C264.879 293.49 266.235 294.096 266.235 295.397V305.051C266.235 305.829 266.767 306.461 267.425 306.461H271.923C272.946 306.461 273.492 307.891 272.817 308.8L263.562 321.274C262.838 322.25 261.482 321.644 261.482 320.343V310.689C261.482 309.911 260.95 309.279 260.292 309.279H255.794C254.773 309.279 254.227 307.849 254.903 306.94" stroke="#5C5C5C" stroke-width="2" stroke-linecap="round" stroke-linejoin="round"/>
<path d="M253.876 279.283C266.657 279.283 277.017 268.922 277.017 256.142C277.017 243.361 266.657 233 253.876 233C241.095 233 230.734 243.361 230.734 256.142C230.734 268.922 241.095 279.283 253.876 279.283Z" fill="#62BF6D" stroke="#5C5C5C" stroke-width="2"/>
<path d="M244.918 255.211L254.172 242.738C254.896 241.761 256.253 242.368 256.253 243.668V253.323C256.253 254.1 256.785 254.732 257.442 254.732H261.941C262.964 254.732 263.51 256.162 262.834 257.072L253.58 269.545C252.855 270.522 251.499 269.915 251.499 268.615V258.96C251.499 258.183 250.967 257.551 250.31 257.551H245.811C244.79 257.551 244.244 256.121 244.92 255.211" fill="#FFD379"/>
<path d="M244.918 255.211L254.172 242.738C254.896 241.761 256.253 242.368 256.253 243.668V253.323C256.253 254.1 256.785 254.732 257.442 254.732H261.941C262.964 254.732 263.51 256.162 262.834 257.072L253.58 269.545C252.855 270.522 251.499 269.915 251.499 268.615V258.96C251.499 258.183 250.967 257.551 250.31 257.551H245.811C244.79 257.551 244.244 256.121 244.92 255.211" stroke="#5C5C5C" stroke-width="2" stroke-linecap="round" stroke-linejoin="round"/>
<path d="M826.581 154.617L811.816 128.548L796.622 154.369L826.581 154.617ZM687.27 142.138L688.436 144.455C736.717 120.154 780.849 133.321 805.325 145.109L806.451 142.772L807.576 140.434C782.367 128.292 736.41 114.499 686.103 139.82L687.27 142.138Z" fill="#FFA54B"/>
<path d="M250.865 460L265.629 486.069L280.823 460.248L250.865 460ZM390.176 472.479L389.009 470.162C340.729 494.463 296.597 481.297 272.121 469.508L270.995 471.845L269.869 474.183C295.078 486.325 341.035 500.118 391.342 474.797L390.176 472.479Z" fill="#BDBDBD"/>
<path d="M447.464 439.184C446 438.344 445.256 437.096 445.256 435.44C445.256 432.488 447.536 430.4 450.776 430.4C454.016 430.4 456.272 432.488 456.272 435.44C456.272 437.096 455.552 438.344 454.112 439.184C455.912 440.168 456.8 441.632 456.8 443.672C456.8 446.936 454.28 449.264 450.776 449.264C447.248 449.264 444.752 446.936 444.752 443.648C444.752 441.608 445.616 440.168 447.464 439.184ZM450.776 432.68C449.192 432.68 448.112 433.808 448.112 435.416C448.112 437.048 449.168 438.128 450.776 438.128C452.384 438.128 453.44 437.048 453.44 435.416C453.44 433.808 452.36 432.68 450.776 432.68ZM450.776 440.408C448.88 440.408 447.608 441.728 447.608 443.672C447.608 445.64 448.904 446.96 450.776 446.96C452.648 446.96 453.944 445.64 453.944 443.696C453.944 441.704 452.672 440.408 450.776 440.408ZM466.291 449.336H463.051C465.811 446.624 467.491 444.44 468.715 442.016C468.019 442.424 467.035 442.664 466.027 442.664C462.763 442.664 460.555 440.264 460.555 436.736C460.555 432.992 463.027 430.4 466.603 430.4C470.299 430.4 472.531 432.896 472.531 437.096C472.531 440.048 471.523 442.76 469.267 445.904C468.307 447.248 467.395 448.28 466.291 449.336ZM466.603 432.8C464.683 432.8 463.411 434.336 463.411 436.664C463.411 438.968 464.611 440.432 466.531 440.432C468.499 440.432 469.675 439.016 469.675 436.664C469.675 434.264 468.499 432.8 466.603 432.8ZM488.406 430.76H490.71L480.078 449H477.774L488.406 430.76ZM488.67 440.336C490.71 440.336 492.318 442.28 492.318 444.752C492.318 447.2 490.71 449.144 488.67 449.144C486.606 449.144 484.998 447.2 484.998 444.752C484.998 442.28 486.606 440.336 488.67 440.336ZM488.646 442.136C487.638 442.136 486.942 443.216 486.942 444.752C486.942 446.288 487.638 447.368 488.646 447.368C489.678 447.368 490.374 446.288 490.374 444.752C490.374 443.192 489.678 442.136 488.646 442.136ZM479.838 430.616C481.902 430.616 483.51 432.536 483.51 435.008C483.51 437.48 481.902 439.4 479.838 439.4C477.774 439.4 476.166 437.48 476.166 435.008C476.166 432.56 477.774 430.616 479.838 430.616ZM479.838 432.392C478.83 432.392 478.11 433.472 478.11 435.008C478.11 436.568 478.83 437.624 479.838 437.624C480.846 437.624 481.542 436.568 481.542 435.008C481.542 433.472 480.846 432.392 479.838 432.392Z" fill="white"/>
<path d="M598.768 184.368V182.736C601.336 182.664 602.512 181.824 603.04 179.664H604.984V198H602.176V184.368H598.768ZM612.627 184.368V182.736C615.195 182.664 616.371 181.824 616.899 179.664H618.843V198H616.035V184.368H612.627ZM638.486 179.76H640.79L630.158 198H627.854L638.486 179.76ZM638.75 189.336C640.79 189.336 642.398 191.28 642.398 193.752C642.398 196.2 640.79 198.144 638.75 198.144C636.686 198.144 635.078 196.2 635.078 193.752C635.078 191.28 636.686 189.336 638.75 189.336ZM638.726 191.136C637.718 191.136 637.022 192.216 637.022 193.752C637.022 195.288 637.718 196.368 638.726 196.368C639.758 196.368 640.454 195.288 640.454 193.752C640.454 192.192 639.758 191.136 638.726 191.136ZM629.918 179.616C631.982 179.616 633.59 181.536 633.59 184.008C633.59 186.48 631.982 188.4 629.918 188.4C627.854 188.4 626.246 186.48 626.246 184.008C626.246 181.56 627.854 179.616 629.918 179.616ZM629.918 181.392C628.91 181.392 628.19 182.472 628.19 184.008C628.19 185.568 628.91 186.624 629.918 186.624C630.926 186.624 631.622 185.568 631.622 184.008C631.622 182.472 630.926 181.392 629.918 181.392Z" fill="white"/>
<defs>
<linearGradient id="paint0_linear_644_6556" x1="906" y1="204" x2="906" y2="243" gradientUnits="userSpaceOnUse">
<stop stop-color="#D1B796"/>
<stop offset="1" stop-color="#AA8967"/>
</linearGradient>
</defs>
</svg>
